<svg width="3764" height="2678" viewBox="0 0 3764 2678" fill="none" xmlns="http://www.w3.org/2000/svg">
<g id="Illustration 18">
<g id="Background">
<g id="Background Object / Lamp">
<g id="Group 17">
<path id="Stroke 1" d="M2139.68 1384.02C2139.68 1384.02 2146.01 1351.04 2167.63 1353.15C2212.74 1357.56 2157.49 1502.54 2250.31 1511.85C2343.12 1521.16 2352.76 1375.93 2352.76 1375.93" stroke="#CCE3FF" stroke-width="7"/>
<path id="Stroke 3" d="M2143.02 1287.48V2135.29" stroke="#DCEEFF" stroke-width="15"/>
<path id="Stroke 5" d="M2352.76 1375.93L1798.89 1137.1" stroke="#DCEEFF" stroke-width="15"/>
<path id="Fill 7" fill-rule="evenodd" clip-rule="evenodd" d="M2036.35 2135.29H2249.68V2124.79C2249.68 2111.2 2238.67 2100.18 2225.09 2100.18H2060.94C2047.36 2100.18 2036.35 2111.2 2036.35 2124.79V2135.29Z" fill="#DCEEFF"/>
<path id="Fill 10" fill-rule="evenodd" clip-rule="evenodd" d="M1682.8 1258.92L1864.31 1298.45L1870.18 1247.72L1698.55 1210.34L1682.8 1258.92Z" fill="#B6D4FF"/>
<path id="Fill 12" fill-rule="evenodd" clip-rule="evenodd" d="M1763.94 1182.92L1818.05 1194.7L1833.5 1123.72C1836.59 1109.52 1827.59 1095.51 1813.4 1092.42L1810.67 1091.82C1796.48 1088.73 1782.47 1097.74 1779.38 1111.93L1763.94 1182.92Z" fill="#B6D4FF"/>
<path id="Fill 15" fill-rule="evenodd" clip-rule="evenodd" d="M1870.18 1247.72L1816.33 1177.08L1776.87 1168.48L1698.54 1210.34L1870.18 1247.72Z" fill="#B6D4FF"/>
</g>
</g>
<g id="Background Object / Closet / 3">
<g id="Group 45">
<path id="Fill 1" fill-rule="evenodd" clip-rule="evenodd" d="M3330.19 1248.48H3307.54C3287.99 1248.48 3272.15 1232.64 3272.15 1213.09V1153.58C3272.15 1147.69 3276.92 1142.92 3282.8 1142.92H3354.92C3360.81 1142.92 3365.58 1147.69 3365.58 1153.58V1213.09C3365.58 1232.64 3349.74 1248.48 3330.19 1248.48Z" fill="#DCEEFF"/>
<path id="Fill 3" fill-rule="evenodd" clip-rule="evenodd" d="M3294.64 1195.7H3343.09V1100.33H3294.64V1195.7Z" fill="#DCEEFF"/>
<path id="Fill 5" fill-rule="evenodd" clip-rule="evenodd" d="M3061.5 1187.43C3061.5 1196.26 3068.67 1203.43 3077.51 1203.43H3221.52V1171.43H3077.51C3068.67 1171.43 3061.5 1178.59 3061.5 1187.43Z" fill="#CCE3FF"/>
<path id="Fill 6" fill-rule="evenodd" clip-rule="evenodd" d="M3158.36 1187.43C3158.36 1192.54 3162.51 1196.69 3167.62 1196.69H3221.13C3221.34 1196.69 3221.52 1196.52 3221.52 1196.3V1178.55C3221.52 1178.33 3221.34 1178.16 3221.13 1178.16H3167.62C3162.51 1178.16 3158.36 1182.31 3158.36 1187.43Z" fill="#DCEEFF"/>
<path id="Fill 7_2" fill-rule="evenodd" clip-rule="evenodd" d="M3041.4 1203.43V1235.43H3198.59C3207.43 1235.43 3214.59 1228.26 3214.59 1219.43C3214.59 1210.59 3207.43 1203.43 3198.59 1203.43H3041.4Z" fill="#CCE3FF"/>
<path id="Fill 8" fill-rule="evenodd" clip-rule="evenodd" d="M3041.4 1210.25V1228.6H3106.03C3111.1 1228.6 3115.21 1224.49 3115.21 1219.43C3115.21 1214.36 3111.1 1210.25 3106.03 1210.25H3041.4Z" fill="#DCEEFF"/>
<path id="Fill 9" fill-rule="evenodd" clip-rule="evenodd" d="M3101.79 1151.91L3112.01 1052.32H3143.98L3154.21 1151.91C3155.28 1162.35 3147.08 1171.42 3136.59 1171.42H3119.41C3108.91 1171.42 3100.72 1162.35 3101.79 1151.91Z" fill="#DCEEFF"/>
<path id="Fill 10_2" fill-rule="evenodd" clip-rule="evenodd" d="M2839.38 2093.98H3313.58V1249.73H2839.38V2093.98Z" fill="#E6F4FF"/>
<path id="Fill 11" fill-rule="evenodd" clip-rule="evenodd" d="M2839.38 2154.5H2866.68V1249.73H2839.38V2154.5Z" fill="#E6F4FF"/>
<path id="Fill 12_2" fill-rule="evenodd" clip-rule="evenodd" d="M2866.68 2154.5H2893.98V2093.98H2866.68V2154.5Z" fill="#B6D4FF"/>
<path id="Fill 13" fill-rule="evenodd" clip-rule="evenodd" d="M3032.89 2154.5H3060.19V2093.98H3032.89V2154.5Z" fill="#B6D4FF"/>
<path id="Fill 14" fill-rule="evenodd" clip-rule="evenodd" d="M3313.58 2154.5H3340.89V2093.98H3313.58V2154.5Z" fill="#B6D4FF"/>
<path id="Fill 15_2" fill-rule="evenodd" clip-rule="evenodd" d="M3425.19 2154.5H3452.49V2093.98H3425.19V2154.5Z" fill="#C5E0FC"/>
<path id="Fill 16" fill-rule="evenodd" clip-rule="evenodd" d="M3286.28 2154.5H3313.58V1249.73H3286.28V2154.5Z" fill="#E6F4FF"/>
<path id="Fill 17" fill-rule="evenodd" clip-rule="evenodd" d="M3452.49 2155.33H3479.8V2093.98H3452.49V2155.33Z" fill="#B6D4FF"/>
<path id="Fill 18" fill-rule="evenodd" clip-rule="evenodd" d="M3005.59 2154.5H3032.89V2093.98H3005.59V2154.5Z" fill="#C5E0FC"/>
<path id="Fill 19" fill-rule="evenodd" clip-rule="evenodd" d="M2866.68 2056.51H3058.38V1894.5H2866.68V2056.51Z" fill="#CCE3FF"/>
<path id="Fill 20" fill-rule="evenodd" clip-rule="evenodd" d="M3094.58 2056.51H3286.29V1894.5H3094.58V2056.51Z" fill="#CCE3FF"/>
<path id="Fill 21" fill-rule="evenodd" clip-rule="evenodd" d="M2866.68 1858.31H3058.38V1696.31H2866.68V1858.31Z" fill="#CCE3FF"/>
<path id="Fill 22" fill-rule="evenodd" clip-rule="evenodd" d="M3094.58 1858.31H3286.29V1696.31H3094.58V1858.31Z" fill="#CCE3FF"/>
<path id="Fill 23" fill-rule="evenodd" clip-rule="evenodd" d="M2866.68 1660.13H3286.28V1498.12H2866.68V1660.13Z" fill="#CCE3FF"/>
<path id="Fill 24" fill-rule="evenodd" clip-rule="evenodd" d="M2866.68 1660.13H2996.49V1498.12H2866.68V1660.13Z" fill="#B6D4FF"/>
<path id="Fill 25" fill-rule="evenodd" clip-rule="evenodd" d="M2866.68 1461.94H3286.28V1299.94H2866.68V1461.94Z" fill="#CCE3FF"/>
<path id="Fill 26" fill-rule="evenodd" clip-rule="evenodd" d="M2866.68 1461.94H2996.49V1299.94H2866.68V1461.94Z" fill="#B6D4FF"/>
<path id="Fill 27" fill-rule="evenodd" clip-rule="evenodd" d="M3313.58 2093.98H3479.79V1249.73H3313.58V2093.98Z" fill="#B6D4FF"/>
<path id="Fill 28" fill-rule="evenodd" clip-rule="evenodd" d="M3308.14 1261.84H2828.9C2814.97 1261.84 2803.68 1250.55 2803.68 1236.63V1235.11H3308.14V1261.84Z" fill="#E6F4FF"/>
<path id="Fill 29" fill-rule="evenodd" clip-rule="evenodd" d="M3489.99 1261.84H3308.14V1235.11H3515.2V1236.63C3515.2 1250.55 3503.92 1261.84 3489.99 1261.84Z" fill="#B6D4FF"/>
<path id="Fill 30" fill-rule="evenodd" clip-rule="evenodd" d="M2839.38 1273.53H3313.58V1261.84H2839.38V1273.53Z" fill="#CCE3FF"/>
<path id="Fill 31" fill-rule="evenodd" clip-rule="evenodd" d="M2960.69 1461.94H2986.46V1363.54H2960.69V1461.94Z" fill="#DCEEFF"/>
<path id="Fill 32" fill-rule="evenodd" clip-rule="evenodd" d="M2934.93 1461.94H2960.69V1363.54H2934.93V1461.94Z" fill="#CCE3FF"/>
<path id="Fill 33" fill-rule="evenodd" clip-rule="evenodd" d="M2986.46 1461.94H3012.23V1363.54H2986.46V1461.94Z" fill="#CCE3FF"/>
<path id="Fill 34" fill-rule="evenodd" clip-rule="evenodd" d="M3080.12 1461.94H3012.23V1363.54H3080.12C3083.74 1363.54 3086.68 1366.48 3086.68 1370.1V1455.38C3086.68 1459 3083.74 1461.94 3080.12 1461.94Z" fill="#B6D4FF"/>
<path id="Fill 35" fill-rule="evenodd" clip-rule="evenodd" d="M3023.26 1387.62H3075.65V1377.88H3023.26V1387.62Z" fill="#CCE3FF"/>
<path id="Fill 36" fill-rule="evenodd" clip-rule="evenodd" d="M3034.94 1402.65H3063.98V1392.91H3034.94V1402.65Z" fill="#CCE3FF"/>
<path id="Fill 37" fill-rule="evenodd" clip-rule="evenodd" d="M3239.56 1603.65V1605.75C3239.56 1615.37 3231.75 1623.18 3222.13 1623.18H3071.09V1586.23H3222.13C3231.75 1586.23 3239.56 1594.03 3239.56 1603.65Z" fill="#B6D4FF"/>
<path id="Fill 38" fill-rule="evenodd" clip-rule="evenodd" d="M3137.59 1604.1V1605.31C3137.59 1610.88 3133.07 1615.4 3127.49 1615.4H3071.3C3071.19 1615.4 3071.09 1615.3 3071.09 1615.19V1594.22C3071.09 1594.1 3071.19 1594.01 3071.3 1594.01H3127.49C3133.07 1594.01 3137.59 1598.52 3137.59 1604.1Z" fill="#DCEEFF"/>
<path id="Fill 39" fill-rule="evenodd" clip-rule="evenodd" d="M3260.72 1623.18V1660.13H3095.82C3086.19 1660.13 3078.38 1652.32 3078.38 1642.7V1640.6C3078.38 1630.98 3086.19 1623.18 3095.82 1623.18H3260.72Z" fill="#B6D4FF"/>
<path id="Fill 40" fill-rule="evenodd" clip-rule="evenodd" d="M3260.72 1631.06V1652.25H3193.01C3187.49 1652.25 3183.02 1647.77 3183.02 1642.25V1641.05C3183.02 1635.53 3187.49 1631.06 3193.01 1631.06H3260.72Z" fill="#DCEEFF"/>
<path id="Fill 41" fill-rule="evenodd" clip-rule="evenodd" d="M3009.45 1907.3H2915.62C2908.54 1907.3 2902.81 1901.57 2902.81 1894.5H3022.25C3022.25 1901.57 3016.52 1907.3 3009.45 1907.3Z" fill="#B6D4FF"/>
<path id="Fill 42" fill-rule="evenodd" clip-rule="evenodd" d="M3237.35 1907.3H3143.52C3136.45 1907.3 3130.71 1901.57 3130.71 1894.5H3250.15C3250.15 1901.57 3244.42 1907.3 3237.35 1907.3Z" fill="#B6D4FF"/>
<path id="Fill 43" fill-rule="evenodd" clip-rule="evenodd" d="M3237.35 1709.11H3143.52C3136.45 1709.11 3130.71 1703.38 3130.71 1696.31H3250.15C3250.15 1703.38 3244.42 1709.11 3237.35 1709.11Z" fill="#B6D4FF"/>
<path id="Fill 44" fill-rule="evenodd" clip-rule="evenodd" d="M3009.45 1709.11H2915.62C2908.54 1709.11 2902.81 1703.38 2902.81 1696.31H3022.25C3022.25 1703.38 3016.52 1709.11 3009.45 1709.11Z" fill="#B6D4FF"/>
</g>
</g>
<g id="Background Object / Bedside-table / 4">
<g id="Group 34">
<path id="Fill 1_2" fill-rule="evenodd" clip-rule="evenodd" d="M1430.3 1823.63H1540.91V1600.46C1540.91 1590.98 1533.22 1583.3 1523.75 1583.3H1447.46C1437.98 1583.3 1430.3 1590.98 1430.3 1600.46V1823.63Z" fill="#CCE3FF"/>
<path id="Fill 3_2" fill-rule="evenodd" clip-rule="evenodd" d="M1286.11 1794.75C1286.11 1805.73 1290.03 1815.8 1296.56 1823.63H1365.92C1372.44 1815.8 1376.36 1805.73 1376.36 1794.75C1376.36 1769.82 1356.16 1749.6 1331.23 1749.6C1306.32 1749.6 1286.11 1769.82 1286.11 1794.75Z" fill="#DCEEFF"/>
<path id="Fill 5_2" fill-rule="evenodd" clip-rule="evenodd" d="M1346.82 1762.74H1315.65V1736.15H1346.82V1762.74Z" fill="#DCEEFF"/>
<path id="Fill 7_3" fill-rule="evenodd" clip-rule="evenodd" d="M1355.03 1736.15H1307.44V1722.36H1355.03V1736.15Z" fill="#DCEEFF"/>
<path id="Fill 8_2" fill-rule="evenodd" clip-rule="evenodd" d="M1349.62 1823.63H1416.23L1382.93 1771.54L1349.62 1823.63Z" fill="#B6D4FF"/>
<path id="Fill 9_2" fill-rule="evenodd" clip-rule="evenodd" d="M1540.91 1794.38H1430.3V1663.67H1540.91V1794.38Z" fill="#B6D4FF"/>
<path id="Fill 10_3" fill-rule="evenodd" clip-rule="evenodd" d="M1524.82 1814.78H1486.87V1805.92H1524.82V1814.78Z" fill="#B6D4FF"/>
<path id="Fill 11_2" fill-rule="evenodd" clip-rule="evenodd" d="M1540.91 1610.03H1430.3V1607.04H1540.91V1610.03Z" fill="#B6D4FF"/>
<path id="Stroke 13" d="M1194.91 2069.38V2145.8" stroke="#CCE3FF" stroke-width="11"/>
<path id="Stroke 16" d="M1316.02 2069.38V2145.8" stroke="#CCE3FF" stroke-width="11"/>
<path id="Stroke 19" d="M1843.77 2069.38V2145.8" stroke="#CCE3FF" stroke-width="11"/>
<path id="Stroke 22" d="M1964.88 2069.38V2145.8" stroke="#CCE3FF" stroke-width="11"/>
<path id="Fill 24_2" fill-rule="evenodd" clip-rule="evenodd" d="M2019.2 2069.38H1369.35V1823.63H2019.2V2069.38Z" fill="#DCEEFF"/>
<path id="Fill 25_2" fill-rule="evenodd" clip-rule="evenodd" d="M1981.79 2041.99H1710.69V1850.9H1981.79V2041.99Z" fill="#CCE3FF"/>
<path id="Fill 26_2" fill-rule="evenodd" clip-rule="evenodd" d="M1677.87 2041.99H1406.77V1850.9H1677.87V2041.99Z" fill="#CCE3FF"/>
<path id="Fill 27_2" fill-rule="evenodd" clip-rule="evenodd" d="M1369.35 2069.38H1141.58V1823.63H1369.35V2069.38Z" fill="#B6D4FF"/>
<path id="Fill 28_2" fill-rule="evenodd" clip-rule="evenodd" d="M1858.7 1763.61V1763.61C1858.7 1774.66 1849.74 1783.62 1838.7 1783.62H1658.75V1743.6H1838.7C1849.74 1743.6 1858.7 1752.56 1858.7 1763.61Z" fill="#CCE3FF"/>
<path id="Fill 29_2" fill-rule="evenodd" clip-rule="evenodd" d="M1737.67 1763.61V1763.61C1737.67 1770 1732.48 1775.19 1726.09 1775.19H1659.23C1658.97 1775.19 1658.75 1774.98 1658.75 1774.71V1752.51C1658.75 1752.24 1658.97 1752.03 1659.23 1752.03H1726.09C1732.48 1752.03 1737.67 1757.21 1737.67 1763.61Z" fill="#DCEEFF"/>
<path id="Fill 30_2" fill-rule="evenodd" clip-rule="evenodd" d="M1883.82 1783.62V1823.63H1687.4C1676.36 1823.63 1667.4 1814.67 1667.4 1803.62C1667.4 1792.57 1676.36 1783.62 1687.4 1783.62H1883.82Z" fill="#CCE3FF"/>
<path id="Fill 31_2" fill-rule="evenodd" clip-rule="evenodd" d="M1883.82 1792.15V1815.1H1803.06C1796.72 1815.1 1791.59 1809.96 1791.59 1803.62C1791.59 1797.29 1796.72 1792.15 1803.06 1792.15H1883.82Z" fill="#DCEEFF"/>
<path id="Fill 32_2" fill-rule="evenodd" clip-rule="evenodd" d="M1790.65 1850.9C1790.65 1865.5 1802.47 1877.33 1817.07 1877.33H1875.41C1890 1877.33 1901.83 1865.5 1901.83 1850.9H1790.65Z" fill="#B6D4FF"/>
<path id="Fill 33_2" fill-rule="evenodd" clip-rule="evenodd" d="M1486.73 1850.9C1486.73 1865.5 1498.56 1877.33 1513.15 1877.33H1571.49C1586.08 1877.33 1597.91 1865.5 1597.91 1850.9H1486.73Z" fill="#B6D4FF"/>
</g>
</g>
<g id="Background Object / Ladder">
<g id="Group 39">
<path id="Stroke 1_2" d="M941.17 2145.1L860.677 1146.35" stroke="#CCE3FF" stroke-width="18"/>
<path id="Stroke 3_2" d="M536.425 2145.1L616.918 1146.35" stroke="#CCE3FF" stroke-width="18"/>
<path id="Stroke 5_2" d="M913.297 1188.73H573.473" stroke="#CCE3FF" stroke-width="18"/>
<path id="Stroke 7" d="M936.369 1407.39H550.401" stroke="#CCE3FF" stroke-width="18"/>
<path id="Stroke 9" d="M954.584 1669.39H532.184" stroke="#CCE3FF" stroke-width="18"/>
<path id="Stroke 11" d="M985.6 1905.78H501.169" stroke="#CCE3FF" stroke-width="18"/>
<path id="Fill 14_2" fill-rule="evenodd" clip-rule="evenodd" d="M669.958 1585.79H781.61C786.669 1585.79 790.77 1581.69 790.77 1576.63V1401C790.77 1395.94 786.669 1391.84 781.61 1391.84H669.958C664.901 1391.84 660.8 1395.94 660.8 1401V1576.63C660.8 1581.69 664.901 1585.79 669.958 1585.79Z" fill="#CCE3FF"/>
<path id="Fill 16_2" fill-rule="evenodd" clip-rule="evenodd" d="M744.544 1830.07H856.194C861.253 1830.07 865.354 1825.97 865.354 1820.91V1662.27C865.354 1657.21 861.253 1653.11 856.194 1653.11H744.544C739.485 1653.11 735.384 1657.21 735.384 1662.27V1820.91C735.384 1825.97 739.485 1830.07 744.544 1830.07Z" fill="#CCE3FF"/>
<path id="Stroke 18" d="M969.969 2145.1L889.476 1146.35" stroke="#DCEEFF" stroke-width="30"/>
<path id="Stroke 20" d="M565.226 2145.1L645.719 1146.35" stroke="#DCEEFF" stroke-width="30"/>
<path id="Stroke 22_2" d="M937.297 1188.73H597.473" stroke="#DCEEFF" stroke-width="18"/>
<path id="Stroke 24" d="M960.369 1407.39H574.401" stroke="#DCEEFF" stroke-width="18"/>
<path id="Stroke 26" d="M978.584 1669.39H556.184" stroke="#DCEEFF" stroke-width="18"/>
<path id="Stroke 28" d="M1009.6 1905.78H525.169" stroke="#DCEEFF" stroke-width="18"/>
<path id="Fill 30_3" fill-rule="evenodd" clip-rule="evenodd" d="M764.43 1776.21H874.708C880.145 1776.21 884.553 1771.8 884.553 1766.36V1662.96C884.553 1657.52 880.145 1653.11 874.708 1653.11H754.585V1766.36C754.585 1771.8 758.993 1776.21 764.43 1776.21Z" fill="#ECF6FF"/>
<path id="Fill 32_3" fill-rule="evenodd" clip-rule="evenodd" d="M884.555 1755.22H754.587V1722.62H884.555V1755.22Z" fill="#DCEEFF"/>
<path id="Fill 34_2" fill-rule="evenodd" clip-rule="evenodd" d="M744.988 1653.12C750.285 1653.12 754.588 1657.41 754.588 1662.72V1653.12H744.988Z" fill="#ECF6FF"/>
<path id="Fill 35_2" fill-rule="evenodd" clip-rule="evenodd" d="M689.846 1526.77H800.122C805.561 1526.77 809.969 1522.36 809.969 1516.92V1401.69C809.969 1396.25 805.561 1391.84 800.122 1391.84H680.001V1516.92C680.001 1522.36 684.409 1526.77 689.846 1526.77Z" fill="#ECF6FF"/>
<path id="Fill 36_2" fill-rule="evenodd" clip-rule="evenodd" d="M809.969 1503.75H680.001V1488.82H809.969V1503.75Z" fill="#DCEEFF"/>
<path id="Fill 37_2" fill-rule="evenodd" clip-rule="evenodd" d="M809.969 1474.24H680.001V1459.3H809.969V1474.24Z" fill="#DCEEFF"/>
<path id="Fill 38_2" fill-rule="evenodd" clip-rule="evenodd" d="M670.404 1391.85C675.7 1391.85 680.004 1396.55 680.004 1402.37V1391.85H670.404Z" fill="#ECF6FF"/>
</g>
</g>
<g id="Background Object / Pluteus / 2">
<g id="Group 21">
<path id="Fill 1_3" fill-rule="evenodd" clip-rule="evenodd" d="M3177.22 487.986C3171.66 534.706 3131.89 570.953 3083.67 570.953C3035.44 570.953 2995.67 534.706 2990.11 487.986H3177.22Z" fill="#ECF6FF"/>
<g id="Group 5">
<path id="Fill 3_3" fill-rule="evenodd" clip-rule="evenodd" d="M2815 431.2C2809.43 477.92 2769.67 514.167 2721.44 514.167C2673.22 514.167 2633.45 477.92 2627.88 431.2H2815Z" fill="#ECF6FF"/>
</g>
<path id="Fill 6_2" fill-rule="evenodd" clip-rule="evenodd" d="M2815 487.986C2809.43 534.706 2769.67 570.953 2721.44 570.953C2673.22 570.953 2633.45 534.706 2627.88 487.986H2815Z" fill="#ECF6FF"/>
<path id="Fill 8_3" fill-rule="evenodd" clip-rule="evenodd" d="M2873.71 501.145H2950.1L2929.53 568.809H2894.28L2873.71 501.145Z" fill="#DCEEFF"/>
<path id="Fill 10_4" fill-rule="evenodd" clip-rule="evenodd" d="M2503.5 501.145H2579.89L2559.32 568.809H2524.07L2503.5 501.145Z" fill="#DCEEFF"/>
<path id="Fill 12_3" fill-rule="evenodd" clip-rule="evenodd" d="M2873.71 456.959H2950.1L2929.53 524.625H2894.28L2873.71 456.959Z" fill="#DCEEFF"/>
<path id="Fill 14_3" fill-rule="evenodd" clip-rule="evenodd" d="M2440.4 584.925H3117.49V556.483H2440.4V584.925Z" fill="#DCEEFF"/>
<path id="Fill 16_3" fill-rule="evenodd" clip-rule="evenodd" d="M3117.49 584.925H3228.87V556.483H3117.49V584.925Z" fill="#CCE3FF"/>
<path id="Fill 17_2" fill-rule="evenodd" clip-rule="evenodd" d="M2605.43 584.926L2658.3 667.879V584.926H2605.43Z" fill="#B6D4FF"/>
<path id="Fill 18_2" fill-rule="evenodd" clip-rule="evenodd" d="M2576.16 584.926L2629.04 667.879H2658.3L2605.42 584.926H2576.16Z" fill="#CCE3FF"/>
<path id="Fill 19_2" fill-rule="evenodd" clip-rule="evenodd" d="M2993.23 584.926L3046.1 667.879V584.926H2993.23Z" fill="#B6D4FF"/>
<path id="Fill 20_2" fill-rule="evenodd" clip-rule="evenodd" d="M2963.97 584.926L3016.84 667.879H3046.1L2993.23 584.926H2963.97Z" fill="#CCE3FF"/>
</g>
</g>
<g id="Background Object / Picture / 6">
<g id="Group 8">
<path id="Fill 1_4" fill-rule="evenodd" clip-rule="evenodd" d="M1383.53 438.46H1535.77V261H1383.53V438.46Z" fill="#DCEEFF"/>
<path id="Stroke 2" fill-rule="evenodd" clip-rule="evenodd" d="M1383.53 438.46H1535.77V261H1383.53V438.46Z" stroke="#DCEEFF" stroke-width="5"/>
<path id="Fill 4" fill-rule="evenodd" clip-rule="evenodd" d="M1373 438.46H1528.07V261H1373V438.46Z" fill="white"/>
<path id="Stroke 5_3" fill-rule="evenodd" clip-rule="evenodd" d="M1373 438.46H1528.07V261H1373V438.46Z" stroke="#DCEEFF" stroke-width="5"/>
<path id="Fill 7_4" fill-rule="evenodd" clip-rule="evenodd" d="M1409.7 392.282H1484.22V306.854H1409.7V392.282Z" fill="#CCE3FF"/>
</g>
</g>
<g id="Background Object / Picture / 2">
<g id="Group 8_2">
<path id="Fill 1_5" fill-rule="evenodd" clip-rule="evenodd" d="M1576.02 580.11H1826.52V255H1576.02V580.11Z" fill="#DCEEFF"/>
<path id="Stroke 2_2" fill-rule="evenodd" clip-rule="evenodd" d="M1576.02 580.11H1826.52V255H1576.02V580.11Z" stroke="#DCEEFF" stroke-width="5"/>
<path id="Fill 4_2" fill-rule="evenodd" clip-rule="evenodd" d="M1563 580.11H1808.64V255H1563V580.11Z" fill="white"/>
<path id="Stroke 5_4" fill-rule="evenodd" clip-rule="evenodd" d="M1563 580.11H1808.64V255H1563V580.11Z" stroke="#DCEEFF" stroke-width="5"/>
<path id="Fill 7_5" fill-rule="evenodd" clip-rule="evenodd" d="M1614.14 518.727H1746.18V315.787H1614.14V518.727Z" fill="#DCEEFF"/>
</g>
</g>
</g>
<g id="Person / Woman / 6">
<g id="Girl / Head / 1">
<g id="Group 21_2">
<g id="Hair color">
<path id="Hair" d="M1334.78 739.379C1334.78 754.599 1333.2 769.459 1330.18 783.799C1309.72 881.439 1223.12 914.759 1119.38 914.759C1000.44 914.759 903.998 858.339 903.998 739.379C903.998 620.419 1000.44 523.999 1119.38 523.999C1201.16 523.999 1272.3 569.559 1308.78 636.699C1325.36 667.219 1334.78 702.199 1334.78 739.379Z" fill="#F6B852"/>
<mask id="mask0_0_326" style="mask-type:alpha" maskUnits="userSpaceOnUse" x="903" y="523" width="432" height="392">
<path id="Hair_2" d="M1334.78 739.379C1334.78 754.599 1333.2 769.459 1330.18 783.799C1309.72 881.439 1223.12 914.759 1119.38 914.759C1000.44 914.759 903.998 858.339 903.998 739.379C903.998 620.419 1000.44 523.999 1119.38 523.999C1201.16 523.999 1272.3 569.559 1308.78 636.699C1325.36 667.219 1334.78 702.199 1334.78 739.379Z" fill="white"/>
</mask>
<g mask="url(#mask0_0_326)">
</g>
</g>
<path id="Fill 4_3" fill-rule="evenodd" clip-rule="evenodd" d="M1156.32 882.68C1156.32 882.68 1130.45 883.444 1119.43 877.422L1154.94 899.718L1156.32 882.68Z" fill="#CF3E83"/>
<g id="Face color">
<path id="Face" d="M1147.67 719.188C1172.86 740.855 1210.13 761.001 1253.9 774.699C1251.11 804.349 1241.86 855.452 1213.95 874.014C1200.77 882.78 1176.77 883.86 1156.32 882.68L1151.63 940.766L1090.84 916.96C1090.84 916.96 1106.01 846.364 1097.89 833.39C1086.98 815.912 1057.79 810.28 1057.75 786.126C1057.74 778.972 1061.92 766.586 1077.37 766.562C1098.09 766.532 1095.14 791.364 1095.14 791.364C1114.21 798.781 1133.64 747.973 1147.67 719.188V719.188Z" fill="#5E93D1"/>
</g>
<path id="Fill 9_3" fill-rule="evenodd" clip-rule="evenodd" d="M1212.53 791.317L1227.33 827.197L1210.16 826.853L1212.53 791.317Z" fill="#2437A8"/>
<path id="Fill 11_3" fill-rule="evenodd" clip-rule="evenodd" d="M1196.78 792.874C1196.41 800.042 1192.19 805.626 1187.36 805.348C1182.53 805.07 1178.91 799.034 1179.28 791.866C1179.65 784.698 1183.86 779.112 1188.69 779.39C1193.53 779.67 1197.15 785.706 1196.78 792.874Z" fill="#1D1D23"/>
<path id="Fill 13_2" fill-rule="evenodd" clip-rule="evenodd" d="M1242.15 791.728C1241.78 798.896 1237.56 804.48 1232.73 804.202C1227.9 803.924 1224.28 797.888 1224.65 790.72C1225.02 783.552 1229.24 777.966 1234.07 778.246C1238.9 778.524 1242.52 784.56 1242.15 791.728Z" fill="#1D1D23"/>
<path id="Stroke 15" d="M1205.95 844.041C1205.95 844.041 1194.76 847.651 1183.55 835.187" stroke="#24242B" stroke-width="3"/>
<path id="Fill 17_3" opacity="0.399019" fill-rule="evenodd" clip-rule="evenodd" d="M1156.27 882.679C1156.27 882.679 1130.41 883.443 1119.39 877.423L1154.9 899.717L1156.27 882.679Z" fill="black"/>
</g>
</g>
<g id="Girl / Body / 2">
<g id="Group 39_2">
<g id="Skin color">
<path id="Skin" fill-rule="evenodd" clip-rule="evenodd" d="M1186.71 948.378C1174.68 928.022 1158.57 916.638 1158.57 916.638L1084.96 913.086C1084.96 913.086 1091.23 929.246 1097.86 950.026C1110.99 991.106 1142.11 1000.34 1169.24 1000.29C1194.57 1000.25 1203.18 976.226 1186.71 948.378ZM1368.06 1067.72C1366.74 1054.79 1366.23 1039.31 1370.34 1033.77C1377.88 1023.59 1415.17 992.844 1415.17 992.844L1417.16 1018.51L1425.98 988.38C1425.98 988.38 1435.76 991.277 1445.22 996.228C1452.04 999.797 1458.58 1004.64 1462.69 1007.68C1463.66 1008.4 1464.5 1009.02 1465.17 1009.5C1470.19 1013.06 1455.61 1067.9 1445.22 1077.76C1438.09 1084.54 1417.05 1089.79 1404.57 1092.42C1380.73 1130.92 1317.19 1227.12 1282.09 1219.18C1245.62 1210.94 1211.78 1083.46 1211.78 1083.46L1273.29 1053.5L1300.08 1136.04L1368.06 1067.72ZM950.09 1347.09L965.062 1385.37C965.062 1385.37 967.336 1395.23 968.607 1406.88C968.664 1407.4 968.719 1407.92 968.774 1408.42L968.775 1408.44C969.935 1419.19 970.713 1426.41 978.078 1443.1C983.454 1455.28 966.056 1451.64 961.123 1444.83C959.302 1442.32 957.804 1437.03 956.246 1431.52C953.452 1421.64 950.466 1411.09 945.089 1414.74C936.715 1420.43 934.191 1449.39 936.065 1476.73C936.358 1481.02 933.377 1484.53 931.245 1485.76C927.786 1487.76 922.74 1470.84 922.74 1470.84C922.74 1470.84 920.925 1476.79 915.418 1474.31C913.469 1473.43 907.661 1461.92 907.661 1461.92C907.661 1461.92 903.164 1456.24 900.799 1449.91C896.624 1438.73 893.215 1417.97 894.019 1411.87C895.917 1397.5 900.188 1373.24 905.803 1359.8C902.488 1325.26 889.781 1186.62 896.791 1160.28C904.814 1130.14 920.534 1089.3 920.534 1089.3L980.854 1124.78L954.995 1179.98L950.09 1347.09Z" fill="#E576C6"/>
</g>
<path id="Path" fill-rule="evenodd" clip-rule="evenodd" d="M1446.38 997.005C1440.82 993.82 1435.54 991.437 1432.95 992.041C1428.41 993.099 1436.71 1004.99 1442.76 1012.81L1442.69 1013.11C1432.93 1017.04 1420.13 1022.87 1418.07 1027.14C1416.63 1030.12 1422.24 1031.09 1429.2 1031.22C1422.8 1034.29 1417.21 1037.61 1415.92 1040.3C1414.25 1043.75 1422.04 1044.51 1430.42 1044.39C1423.02 1047.76 1416.09 1051.6 1414.62 1054.64C1412.75 1058.52 1422.84 1059 1432.28 1058.65L1429.85 1069.25C1429.11 1072.5 1426.15 1074.75 1422.82 1074.61L1386.61 1073.02C1382.3 1072.84 1379.22 1068.79 1380.18 1064.59L1405.83 952.469C1406.58 949.219 1409.54 946.963 1412.87 947.109L1449.07 948.691C1453.38 948.881 1456.46 952.927 1455.5 957.131L1446.38 997.005Z" fill="#020101"/>
<g id="Phone color">
<path id="Phone" d="M1453.76 1001.55C1446.08 996.543 1436.69 991.168 1432.95 992.042C1428.37 993.109 1436.86 1005.2 1442.92 1013.02C1433.13 1016.95 1420.14 1022.84 1418.07 1027.14C1416.63 1030.12 1422.24 1031.09 1429.2 1031.22C1422.8 1034.29 1417.22 1037.61 1415.92 1040.3C1414.25 1043.75 1422.04 1044.51 1430.42 1044.39C1423.02 1047.77 1416.09 1051.6 1414.62 1054.65C1412.14 1059.78 1430.64 1058.95 1440.81 1058.13L1438.19 1069.61C1437.45 1072.86 1434.49 1075.12 1431.15 1074.97L1394.95 1073.39C1390.64 1073.2 1387.56 1069.15 1388.52 1064.95L1414.17 952.833C1414.92 949.583 1417.87 947.329 1421.2 947.473L1457.41 949.055C1461.72 949.245 1464.8 953.293 1463.84 957.495L1453.76 1001.55Z" fill="#5E93D1"/>
</g>
<path id="Fill 20_3" fill-rule="evenodd" clip-rule="evenodd" d="M1423.51 962.327C1422.66 966.001 1420.5 968.611 1418.67 968.153C1416.84 967.695 1416.04 964.345 1416.88 960.671C1417.73 956.995 1419.89 954.387 1421.72 954.845C1423.55 955.303 1424.35 958.653 1423.51 962.327Z" fill="#020101"/>
<path id="Fill 22_2" fill-rule="evenodd" clip-rule="evenodd" d="M1419.27 981.341C1418.43 985.015 1416.26 987.625 1414.43 987.167C1412.6 986.709 1411.8 983.359 1412.65 979.685C1413.49 976.009 1415.66 973.401 1417.49 973.859C1419.32 974.317 1420.12 977.667 1419.27 981.341Z" fill="#020101"/>
<g id="T-shirt color">
<path id="T-Shirt" d="M1109.22 914.257L1084.96 913.086C1084.96 913.086 1091.23 929.246 1097.86 950.026C1110.99 991.106 1142.11 1000.34 1169.24 1000.29C1194.57 1000.25 1203.18 976.226 1186.71 948.378C1176.11 930.449 1162.35 919.48 1159.22 917.119C1191.21 919.282 1211.13 923.298 1229.58 940.6C1264.7 973.542 1293.14 1034.27 1304.84 1094.27L1240.65 1122.91L1217.79 1211.24L1049.82 1208.68C1049.82 1208.68 1051.29 1192.5 1047.67 1169.12C1042.95 1138.54 1025.92 1115.72 1025.92 1115.72L1009.03 1141.4L903.957 1079.46C938.355 1016.74 986.335 952.06 1018.33 931.48C1040.92 916.935 1061.62 913.284 1081.84 913.086C1091.03 912.996 1100.26 913.621 1109.22 914.257Z" fill="#5E93D1"/>
</g>
<path id="Stroke 31" opacity="0.202962" d="M1218.54 1212.78C1224.96 1131.29 1267.37 1112.06 1235.37 1020.68" stroke="black" stroke-width="3"/>
<path id="Stroke 35" opacity="0.202055" d="M1158.57 916.638C1158.57 916.638 1174.68 928.022 1186.71 948.378C1203.18 976.226 1194.57 1000.25 1169.24 1000.29C1142.11 1000.34 1110.99 991.106 1097.86 950.026C1091.23 929.246 1084.96 913.086 1084.96 913.086" stroke="black" stroke-width="3"/>
<path id="Stroke 37" opacity="0.202962" d="M1069.06 1058.68L1030.09 1117.73" stroke="black" stroke-width="3"/>
</g>
</g>
<g id="Girl / Legs / 5">
<g id="Group 17_2">
<g id="Shoes">
<path id="Shoes_2" fill-rule="evenodd" clip-rule="evenodd" d="M1095.32 2296.69L1046.65 2299.13C1046.65 2299.13 1009.88 2308.18 984.484 2358.13H1100.52L1095.32 2296.69ZM1451.08 2358.71C1416.65 2322.99 1325.04 2298.98 1325.04 2298.98L1290.71 2297.93L1286.23 2359L1451.08 2358.71Z" fill="#0D0B6D"/>
</g>
<g id="Skin color_2">
<path id="Skin_2" fill-rule="evenodd" clip-rule="evenodd" d="M1025.11 2331.25C1053.16 2330.7 1072.36 2315.59 1082.31 2305.15L1093.74 2307.24L1133.24 1695.11L1005.88 1754.11L1054.35 2294.29C1046.25 2299.73 999.587 2331.76 1025.11 2331.25ZM1406.67 2329.07L1341.01 2300.57C1337.24 2275.56 1321.3 2166.71 1306.6 2020.49C1293.41 1889.29 1281.92 1769.22 1281.92 1769.22L1172.38 1774.33L1292.17 2306.03H1305.18C1326.02 2316.65 1366.43 2333.47 1406.67 2329.07Z" fill="#E576C6"/>
</g>
<g id="Skirt color">
<path id="Skirt" d="M1052.6 1206C1052.6 1206 1018.65 1222.23 989.116 1310.33C949.582 1428.25 938 1785.41 938 1785.41H1318.66L1220.57 1208.56L1052.6 1206Z" fill="#2F2F3D"/>
</g>
</g>
</g>
</g>
<g id="Person / Robot / 2">
<g id="Robot / Legs / 3">
<g id="Group 13">
<g id="Legs color">
<path id="Legs" fill-rule="evenodd" clip-rule="evenodd" d="M2420.6 1728.4H2452.25V1616.12C2452.25 1599.39 2465.78 1585.83 2482.46 1585.83H2579.97C2596.66 1585.83 2610.18 1599.39 2610.18 1616.12V1725.31H2638C2647.88 1725.31 2655.88 1733.33 2655.88 1743.24V2107.47C2655.88 2117.37 2647.88 2125.4 2638 2125.4H2581.44C2571.57 2125.4 2563.56 2117.37 2563.56 2107.47C2563.56 2097.56 2571.57 2089.53 2581.44 2089.53H2620.12V2011.08C2609.52 1994.85 2596.19 1985.18 2581.72 1985.18C2547.17 1985.18 2519.17 2040.26 2519.17 2108.2C2519.17 2176.14 2547.17 2231.22 2581.72 2231.22C2613.31 2231.22 2639.44 2185.15 2643.67 2125.3C2650.91 2123.01 2656.16 2116.22 2656.16 2108.2V1903.83C2688.48 1949.45 2709.53 2023.99 2709.53 2108.2C2709.53 2247.04 2652.31 2359.59 2581.72 2359.59C2580.02 2359.59 2578.33 2359.52 2576.65 2359.39H2482.4C2480.72 2359.52 2479.03 2359.59 2477.33 2359.59C2406.74 2359.59 2349.52 2247.04 2349.52 2108.2C2349.52 2024.13 2370.5 1949.7 2402.72 1904.06V1746.33C2402.72 1736.43 2410.73 1728.4 2420.6 1728.4ZM2452.25 1785.5V1764.27H2438.49V1868.63C2450.74 1860.96 2463.79 1856.81 2477.33 1856.81C2477.39 1856.81 2477.45 1856.81 2477.52 1856.81C2477.59 1856.81 2477.66 1856.81 2477.73 1856.81H2581.32C2581.45 1856.81 2581.59 1856.81 2581.72 1856.81C2595.1 1856.81 2608 1860.86 2620.12 1868.35V1761.17H2610.18V1785.5C2610.18 1802.23 2596.66 1815.79 2579.97 1815.79H2482.46C2465.78 1815.79 2452.25 1802.23 2452.25 1785.5Z" fill="#6CA1FF"/>
</g>
<path id="Path_2" fill-rule="evenodd" clip-rule="evenodd" d="M2643.35 2124.58C2641.66 2125.11 2639.86 2125.4 2638 2125.4H2581.44C2571.57 2125.4 2563.56 2117.37 2563.56 2107.47C2563.56 2097.56 2571.57 2089.53 2581.44 2089.53H2620.12V2010.71C2609.47 1994.19 2596.03 1984.34 2581.41 1984.34C2546.87 1984.34 2518.86 2039.41 2518.86 2107.36C2518.86 2175.3 2546.87 2230.38 2581.41 2230.38C2612.98 2230.38 2639.09 2184.37 2643.35 2124.58L2643.35 2124.58Z" fill="#19141E"/>
<path id="Fill 10_5" fill-rule="evenodd" clip-rule="evenodd" d="M2610.71 1701.69H2452.78V1647.45H2610.71V1701.69Z" fill="#19141E"/>
<g id="Overlay">
<path id="Shape" opacity="0.395764" fill-rule="evenodd" clip-rule="evenodd" d="M2437.29 1868.79C2437.83 1868.43 2438.37 1868.07 2438.92 1867.7V1765.16H2453.21V1729.29H2421.04C2411.16 1729.29 2403.15 1737.32 2403.15 1747.22C2402.87 1816.05 2402.72 1867.8 2402.72 1902.47C2403.71 1901.18 2404.7 1899.91 2405.7 1898.66C2406.46 1897.62 2407.2 1896.59 2407.88 1895.85C2408.06 1895.66 2408.23 1895.47 2408.4 1895.29C2372.46 1939.78 2348.57 2018.5 2348.57 2108.2C2348.57 2247.04 2405.8 2359.59 2476.39 2359.59C2478.08 2359.59 2479.77 2359.52 2481.45 2359.39H2575.71C2507.47 2354.16 2452.96 2243.7 2452.96 2108.2C2452.96 1969.62 2509.97 1857.24 2580.38 1856.81L2476.78 1856.81C2476.65 1856.81 2476.52 1856.81 2476.39 1856.81C2462.75 1856.81 2449.61 1861.01 2437.29 1868.79ZM2416.38 1886.18C2415.42 1887.19 2414.47 1888.21 2413.53 1889.26C2414.37 1888.28 2415.27 1887.29 2416.38 1886.18ZM2620.12 2089.53H2581.44C2571.57 2089.53 2563.56 2097.56 2563.56 2107.47C2563.56 2117.37 2571.57 2125.4 2581.44 2125.4H2638C2647.88 2125.4 2655.88 2117.37 2655.88 2107.47V1743.24C2655.88 1733.33 2647.88 1725.31 2638 1725.31H2581.44C2571.57 1725.31 2563.56 1733.33 2563.56 1743.24C2563.56 1753.14 2571.57 1761.17 2581.44 1761.17H2620.12V2089.53Z" fill="black"/>
</g>
</g>
</g>
<g id="Robot / Body / 1">
<g id="Group 25">
<path id="Stroke 1_3" d="M2238.4 1588.96L2284.94 1247.74" stroke="#19141E" stroke-width="27" stroke-linecap="round"/>
<path id="Fill 9_4" fill-rule="evenodd" clip-rule="evenodd" d="M2671.76 1546.85H2381.54L2337.28 1499.2H2716.01L2671.76 1546.85Z" fill="#19141E"/>
<path id="Stroke 11_2" d="M2844.36 1577.62L2795.3 1236.75" stroke="#19141E" stroke-width="27" stroke-linecap="round"/>
<g id="Body color">
<path id="Body" fill-rule="evenodd" clip-rule="evenodd" d="M2260.75 1430.95V1334.74C2258.46 1334.3 2256.16 1333.75 2253.88 1333.1C2211.57 1321 2187.08 1276.89 2199.18 1234.58C2211.27 1192.27 2255.38 1167.78 2297.69 1179.88C2299.44 1180.38 2301.17 1180.94 2302.86 1181.55C2313.99 1175.58 2326.68 1172.19 2340.13 1172.19H2713.16C2725.27 1172.19 2736.77 1174.94 2747.07 1179.85C2759.23 1172.33 2773.56 1168 2788.9 1168C2832.91 1168 2868.58 1203.67 2868.58 1247.68C2868.58 1290.46 2834.86 1325.37 2792.54 1327.28V1430.95C2792.54 1474.61 2756.82 1510.33 2713.16 1510.33H2340.13C2296.47 1510.33 2260.75 1474.61 2260.75 1430.95ZM2161.6 2025.42C2160.87 2006.76 2167.07 1989.43 2177.92 1975.93C2145.86 1957.93 2124.12 1923.54 2124.25 1884.36L2124.98 1668.55C2125.17 1611.07 2172.36 1564.2 2229.84 1564.39C2287.32 1564.58 2334.19 1611.77 2334 1669.25L2333.27 1885.06C2333.15 1920.15 2315.52 1951.28 2288.73 1970.17C2300.84 1982.35 2308.83 1998.68 2310.19 2016.84C2310.4 2019.58 2310.46 2022.3 2310.37 2024.99C2309.98 2037.15 2294.4 2041.72 2287.46 2031.72C2279.55 2020.33 2268.66 2013.44 2256.9 2013.9C2234.34 2014.79 2217.12 2042.43 2218.43 2075.64C2218.43 2075.67 2218.43 2075.69 2218.43 2075.71L2218.43 2075.75V2075.75C2218.43 2075.78 2218.43 2075.82 2218.44 2075.86C2218.85 2085.75 2208.44 2092.38 2199.79 2087.56C2177.88 2075.34 2162.66 2052.34 2161.6 2025.42ZM2864.92 1978.2C2901.39 1964.05 2928.56 1929.9 2931.65 1888.48L2947.71 1673.27C2951.99 1615.95 2908.58 1565.55 2851.26 1561.27C2793.95 1557 2743.55 1600.4 2739.27 1657.72L2723.21 1872.93C2720.53 1908.92 2736.63 1942.18 2763.18 1963.01C2744.82 1976.04 2732.5 1997.17 2731.65 2021C2731.56 2023.75 2731.61 2026.46 2731.8 2029.14C2732.67 2041.28 2748.41 2045.24 2754.95 2034.97C2762.41 2023.27 2773.02 2015.96 2784.79 2015.96C2807.36 2015.96 2825.67 2042.9 2825.67 2076.14V2076.35C2825.64 2086.26 2836.3 2092.47 2844.76 2087.31C2866.17 2074.24 2880.47 2050.65 2880.47 2023.72C2880.47 2006.57 2874.67 1990.78 2864.92 1978.2ZM2594.98 1546.6V1592.6H2458.31V1546.6H2594.98Z" fill="#6CA1FF"/>
</g>
<g id="Overlay_2">
<path id="Shape_2" opacity="0.394764" fill-rule="evenodd" clip-rule="evenodd" d="M2731.65 2021C2731.56 2023.74 2731.61 2026.46 2731.8 2029.14C2732.67 2041.28 2748.41 2045.23 2754.95 2034.97C2762.41 2023.27 2773.02 2015.96 2784.79 2015.96C2807.36 2015.96 2825.67 2042.9 2825.67 2076.14V2076.35C2825.64 2086.26 2836.3 2092.47 2844.76 2087.31C2866.17 2074.24 2880.47 2050.65 2880.47 2023.72C2880.47 1981.86 2845.9 1948.07 2803.73 1949.33C2764.89 1950.5 2733.03 1982.16 2731.65 2021ZM2366.34 1335.44C2366.34 1386.44 2403.46 1428.76 2452.16 1436.88C2452.86 1436.76 2453.54 1436.64 2454.24 1436.5C2501.92 1427.58 2538 1385.72 2538 1335.44C2538 1285.16 2501.92 1243.3 2454.24 1234.38C2453.54 1234.24 2452.86 1234.12 2452.16 1234C2403.46 1242.12 2366.34 1284.44 2366.34 1335.44ZM2529.22 1335.58C2529.22 1368.48 2502.55 1395.15 2469.65 1395.15C2436.74 1395.15 2410.07 1368.48 2410.07 1335.58C2410.07 1302.67 2436.74 1276 2469.65 1276C2502.55 1276 2529.22 1302.67 2529.22 1335.58ZM2869 1247.68C2869 1203.67 2833.33 1168 2789.32 1168C2745.31 1168 2709.64 1203.67 2709.64 1247.68C2709.64 1291.69 2745.31 1327.36 2789.32 1327.36C2833.33 1327.36 2869 1291.69 2869 1247.68ZM2849.78 1232.91C2849.78 1254.26 2832.47 1271.56 2811.12 1271.56C2789.77 1271.56 2772.47 1254.26 2772.47 1232.91C2772.47 1211.56 2789.77 1194.26 2811.12 1194.26C2832.47 1194.26 2849.78 1211.56 2849.78 1232.91ZM2303 1181.76C2301.31 1181.15 2299.59 1180.59 2297.83 1180.09C2255.52 1167.99 2211.42 1192.48 2199.32 1234.79C2187.22 1277.11 2211.71 1321.21 2254.02 1333.31C2256.31 1333.96 2258.6 1334.51 2260.89 1334.95V1251.79C2260.89 1221.57 2278 1195.16 2303 1181.76ZM2177.92 1975.54C2167.07 1989.04 2160.87 2006.37 2161.61 2025.03C2162.67 2051.95 2177.88 2074.95 2199.79 2087.17C2208.45 2091.99 2218.85 2085.36 2218.44 2075.47C2218.43 2075.4 2218.43 2075.33 2218.43 2075.25C2217.12 2042.04 2234.34 2014.4 2256.91 2013.51C2268.66 2013.05 2279.55 2019.94 2287.47 2031.33C2294.4 2041.33 2309.98 2036.76 2310.37 2024.6C2310.46 2021.91 2310.4 2019.19 2310.2 2016.45C2308.83 1998.29 2300.84 1981.96 2288.73 1969.78C2315.53 1950.89 2333.16 1919.76 2333.28 1884.67L2334 1668.86C2334.19 1611.38 2287.32 1564.19 2229.84 1564C2172.36 1563.81 2125.17 1610.68 2124.98 1668.16L2124.26 1883.97C2124.13 1923.15 2145.86 1957.54 2177.92 1975.54ZM2592.58 1417.95C2592.58 1406.65 2583.42 1397.49 2572.12 1397.49C2560.82 1397.49 2551.66 1406.65 2551.66 1417.95C2551.66 1429.25 2560.82 1438.41 2572.12 1438.41C2583.42 1438.41 2592.58 1429.25 2592.58 1417.95ZM2651.72 1417.95C2651.72 1406.65 2642.56 1397.49 2631.26 1397.49C2619.96 1397.49 2610.8 1406.65 2610.8 1417.95C2610.8 1429.25 2619.96 1438.41 2631.26 1438.41C2642.56 1438.41 2651.72 1429.25 2651.72 1417.95ZM2921.33 1689.26C2922.2 1677.99 2913.78 1668.15 2902.51 1667.27C2891.24 1666.4 2881.4 1674.83 2880.53 1686.09C2879.65 1697.36 2888.08 1707.2 2899.35 1708.08C2910.62 1708.95 2920.46 1700.52 2921.33 1689.26ZM2916.96 1745.7C2917.83 1734.43 2909.4 1724.59 2898.14 1723.72C2886.87 1722.85 2877.03 1731.27 2876.16 1742.54C2875.28 1753.81 2883.71 1763.65 2894.98 1764.52C2906.24 1765.39 2916.08 1756.97 2916.96 1745.7ZM2912.48 1803.51C2913.35 1792.25 2904.92 1782.41 2893.66 1781.53C2882.39 1780.66 2872.55 1789.09 2871.68 1800.35C2870.8 1811.62 2879.23 1821.46 2890.49 1822.33C2901.76 1823.21 2911.6 1814.78 2912.48 1803.51ZM2596 1592V1546H2458V1592H2596Z" fill="black"/>
</g>
<path id="Path_3" fill-rule="evenodd" clip-rule="evenodd" d="M2452.64 1437.01C2403.94 1428.89 2366.82 1386.57 2366.82 1335.57C2366.82 1284.57 2403.94 1242.25 2452.64 1234.13C2447.12 1233.21 2441.44 1232.73 2435.66 1232.73C2378.86 1232.73 2332.82 1278.77 2332.82 1335.57C2332.82 1392.37 2378.86 1438.41 2435.66 1438.41C2441.44 1438.41 2447.12 1437.93 2452.64 1437.01Z" fill="#19141E"/>
</g>
</g>
<g id="Robot / Head / 3">
<g id="Group 15">
<path id="Stroke 1_4" d="M2582.54 920.846C2582.54 920.846 2547.62 943.944 2543.78 983.906" stroke="#19141E" stroke-width="5" stroke-linecap="round"/>
<g id="Face color_2">
<path id="Face_2" fill-rule="evenodd" clip-rule="evenodd" d="M2585.85 938.154C2574.21 938.154 2564.77 928.716 2564.77 917.076C2564.77 905.436 2574.21 896 2585.85 896C2597.49 896 2606.93 905.436 2606.93 917.076C2606.93 928.716 2597.49 938.154 2585.85 938.154ZM2686.25 1088.9H2580.49V1172.65H2519.78V1088.9H2419.58C2396.62 1088.9 2377.83 1070.11 2377.83 1047.15V1019C2377.83 996.041 2396.62 977.253 2419.58 977.253H2686.25C2709.21 977.253 2728 996.041 2728 1019V1047.15C2728 1070.11 2709.21 1088.9 2686.25 1088.9Z" fill="#6CA1FF"/>
</g>
<g id="Overlay_3">
<path id="Fill 5_3" opacity="0.399042" fill-rule="evenodd" clip-rule="evenodd" d="M2580.49 1172.65H2519.78V1088.65H2580.49V1172.65Z" fill="black"/>
</g>
<path id="Fill 7_6" opacity="0.400367" fill-rule="evenodd" clip-rule="evenodd" d="M2580.49 1145.48L2519.78 1125.48V1088.32H2580.49V1145.48Z" fill="black"/>
<path id="Fill 9_5" fill-rule="evenodd" clip-rule="evenodd" d="M2686.25 1088.9C2709.21 1088.9 2728 1070.11 2728 1047.15V1019C2728 996.041 2709.21 977.253 2686.25 977.253C2663.29 977.253 2644.5 996.041 2644.5 1019V1047.15C2644.5 1070.11 2663.29 1088.9 2686.25 1088.9Z" fill="#19141E"/>
<path id="Fill 10_6" fill-rule="evenodd" clip-rule="evenodd" d="M2620.77 1033.08C2620.77 1050.76 2606.44 1065.09 2588.76 1065.09C2571.08 1065.09 2556.75 1050.76 2556.75 1033.08C2556.75 1015.4 2571.08 1001.07 2588.76 1001.07C2606.44 1001.07 2620.77 1015.4 2620.77 1033.08Z" fill="white"/>
<path id="Fill 11_4" fill-rule="evenodd" clip-rule="evenodd" d="M2599.32 1028.58C2599.32 1036.7 2592.73 1043.29 2584.61 1043.29C2576.49 1043.29 2569.91 1036.7 2569.91 1028.58C2569.91 1020.46 2576.49 1013.87 2584.61 1013.87C2592.73 1013.87 2599.32 1020.46 2599.32 1028.58Z" fill="#19141E"/>
<path id="Fill 12_4" fill-rule="evenodd" clip-rule="evenodd" d="M2464.67 1033.08C2464.67 1050.76 2450.34 1065.09 2432.66 1065.09C2414.98 1065.09 2400.65 1050.76 2400.65 1033.08C2400.65 1015.4 2414.98 1001.07 2432.66 1001.07C2450.34 1001.07 2464.67 1015.4 2464.67 1033.08Z" fill="white"/>
<path id="Fill 13_3" fill-rule="evenodd" clip-rule="evenodd" d="M2443.22 1028.58C2443.22 1036.7 2436.63 1043.29 2428.51 1043.29C2420.39 1043.29 2413.81 1036.7 2413.81 1028.58C2413.81 1020.46 2420.39 1013.87 2428.51 1013.87C2436.63 1013.87 2443.22 1020.46 2443.22 1028.58Z" fill="#19141E"/>
<path id="Fill 14_4" fill-rule="evenodd" clip-rule="evenodd" d="M2518.02 1011.14L2489.39 1032.86L2518.02 1055.02" fill="#19141E"/>
</g>
</g>
</g>
</g>
</svg>
