<svg width="3340" height="2506" viewBox="0 0 3340 2506" fill="none" xmlns="http://www.w3.org/2000/svg">
<g id="Illustration 11">
<g id="Background">
<g id="Background Object / Cloud / 1">
<g id="Group 3">
<path id="Fill 1" fill-rule="evenodd" clip-rule="evenodd" d="M1352.17 469.568H648C648 469.568 714.338 372.818 768.876 371.304C833.964 369.498 863.272 441.07 925.776 441.07C988.294 441.07 1030.15 266.002 1145.86 266.002C1269.39 266.002 1352.17 469.568 1352.17 469.568Z" fill="#ECF6FF"/>
</g>
</g>
<g id="Background Object / Tree / 2">
<g id="Group 14">
<path id="Fill 1_2" fill-rule="evenodd" clip-rule="evenodd" d="M1678.88 1377.58C1671.28 1354.84 1629.65 1358.69 1629.65 1295.28C1629.64 1199.8 1761.13 1210.7 1768.88 1138.76C1776.63 1066.83 1692.14 1068.55 1689.53 1007.87C1686.91 947.197 1751.16 822 1848.63 822C1925.5 822 1861.83 918.602 1923.86 961.802C1985.9 1005 2056.74 949.658 2091.81 1017.59C2140.1 1111.16 2016.6 1223.54 2028.79 1295.28C2040.97 1367.01 2113.37 1350.05 2115.59 1428.87C2117.8 1507.69 2012.63 1521.56 2022.54 1589.15C2028.79 1631.75 2095.34 1617.53 2098.84 1701.54C2101.79 1772.66 1873.11 1860.68 1701.33 1715.94C1529.54 1571.2 1707.87 1464.37 1678.88 1377.58Z" fill="#CCE3FF"/>
<path id="Stroke 4" d="M1868.21 1205.29V1904.32" stroke="#ECF6FF" stroke-width="8" stroke-linecap="square"/>
<path id="Stroke 6" d="M1871.81 1678.59L1961.64 1588.77" stroke="#ECF6FF" stroke-width="8" stroke-linecap="square"/>
<path id="Stroke 8" d="M1873.01 1422.74L1918.67 1377.07" stroke="#ECF6FF" stroke-width="8" stroke-linecap="square"/>
<path id="Stroke 10" d="M1863.41 1524.4L1791.79 1452.77" stroke="#ECF6FF" stroke-width="8" stroke-linecap="square"/>
<path id="Stroke 12" d="M1865.06 1303.25L1830.26 1268.45" stroke="#ECF6FF" stroke-width="8" stroke-linecap="square"/>
</g>
</g>
<g id="Background Object / Tree / 5">
<g id="Group 12">
<path id="Fill 1_3" fill-rule="evenodd" clip-rule="evenodd" d="M971.063 1473.42C971.063 1610.86 881.363 1687.54 764.532 1687.54C647.699 1687.54 557.999 1610.86 557.999 1473.42C557.999 1184.02 689.82 850.4 764.532 850.4C839.243 850.4 971.063 1184.02 971.063 1473.42Z" fill="#CCE3FF"/>
<path id="Stroke 4_2" d="M764.532 1268.97V1903.38" stroke="#ECF6FF" stroke-width="8" stroke-linecap="square"/>
<path id="Stroke 6_2" d="M767 1605.05L840.098 1531.95" stroke="#ECF6FF" stroke-width="8" stroke-linecap="square"/>
<path id="Stroke 8_2" d="M758.412 1465.77L698.597 1405.95" stroke="#ECF6FF" stroke-width="8" stroke-linecap="square"/>
<path id="Stroke 10_2" d="M768.132 1372.07L813.794 1326.4" stroke="#ECF6FF" stroke-width="8" stroke-linecap="square"/>
</g>
</g>
<g id="Background Object / Tree / 3">
<g id="Group 12_2">
<path id="Fill 1_4" fill-rule="evenodd" clip-rule="evenodd" d="M1713.12 1411.06C1713.12 1568.92 1585.27 1696.88 1427.56 1696.88C1269.85 1696.88 1142 1568.92 1142 1411.06C1142 1253.2 1269.85 1125.23 1427.56 1125.23C1585.27 1125.23 1713.12 1253.2 1713.12 1411.06Z" fill="#ECF6FF"/>
<path id="Stroke 4_3" d="M1427.56 1328.45V1913.07" stroke="#B6D4FF" stroke-width="8"/>
<path id="Stroke 6_3" d="M1427.56 1599.52L1491.13 1535.89" stroke="#B6D4FF" stroke-width="8"/>
<path id="Stroke 8_3" d="M1429.96 1408.53L1462.69 1375.77" stroke="#B6D4FF" stroke-width="8"/>
<path id="Stroke 10_3" d="M1427.56 1504.59L1366.64 1443.62" stroke="#B6D4FF" stroke-width="8"/>
</g>
</g>
<g id="Background Object / Streetlight / 2">
<g id="Group 13">
<path id="Fill 1_5" fill-rule="evenodd" clip-rule="evenodd" d="M2403.57 357.932H2384.49C2375.32 357.932 2367.88 365.37 2367.88 374.548V1750.15H2420.18V374.548C2420.18 365.37 2412.74 357.932 2403.57 357.932Z" fill="#D7EBFF"/>
<path id="Fill 3" fill-rule="evenodd" clip-rule="evenodd" d="M2352.19 1876.68H2435.87V1734.81H2352.19V1876.68Z" fill="#CCE3FF"/>
<path id="Fill 5" fill-rule="evenodd" clip-rule="evenodd" d="M2329.48 2213.98H2458.58V1799.36H2329.48V2213.98Z" fill="#D7EBFF"/>
<path id="Fill 6" fill-rule="evenodd" clip-rule="evenodd" d="M2447.85 2159.05H2340.22C2318.47 2159.05 2300.83 2176.69 2300.83 2198.44V2215.74H2487.23V2198.44C2487.23 2176.69 2469.6 2159.05 2447.85 2159.05Z" fill="#CCE3FF"/>
<path id="Fill 7" fill-rule="evenodd" clip-rule="evenodd" d="M2458.58 1795.46H2329.49C2318.79 1795.46 2310.12 1804.13 2310.12 1814.83V1817.22C2310.12 1827.92 2318.79 1836.59 2329.49 1836.59H2458.58C2469.28 1836.59 2477.95 1827.92 2477.95 1817.22V1814.83C2477.95 1804.13 2469.28 1795.46 2458.58 1795.46Z" fill="#CCE3FF"/>
<path id="Fill 8" fill-rule="evenodd" clip-rule="evenodd" d="M2394.03 284C2374.8 284 2359.21 299.59 2359.21 318.82V323.112C2359.21 342.342 2374.8 357.932 2394.03 357.932C2413.26 357.932 2428.85 342.342 2428.85 323.112V318.82C2428.85 299.59 2413.26 284 2394.03 284Z" fill="#CCE3FF"/>
<path id="Fill 9" fill-rule="evenodd" clip-rule="evenodd" d="M2445.51 690.059H2342.55C2331.86 690.059 2323.18 698.731 2323.18 709.431V711.817C2323.18 722.517 2331.86 731.189 2342.55 731.189H2445.51C2456.21 731.189 2464.88 722.517 2464.88 711.817V709.431C2464.88 698.731 2456.21 690.059 2445.51 690.059Z" fill="#CCE3FF"/>
<path id="Fill 10" fill-rule="evenodd" clip-rule="evenodd" d="M2431.45 731.189H2356.61C2349.59 731.189 2343.89 736.883 2343.89 743.907V745.475C2343.89 752.497 2349.59 758.191 2356.61 758.191H2431.45C2438.48 758.191 2444.17 752.497 2444.17 745.475V743.907C2444.17 736.883 2438.48 731.189 2431.45 731.189Z" fill="#CCE3FF"/>
<path id="Fill 11" fill-rule="evenodd" clip-rule="evenodd" d="M2492.89 417.527L2436.35 690.057H2351.74L2295.17 417.527H2492.89Z" fill="#ECF6FF"/>
<path id="Fill 12" fill-rule="evenodd" clip-rule="evenodd" d="M2510.06 431.971L2485.27 383.191H2302.79L2278 431.971H2510.06Z" fill="#CCE3FF"/>
</g>
</g>
</g>
<g id="Person / Man / 2">
<g id="Man / Head / 1">
<g id="Group 25">
<g id="Face color">
<path id="Face" d="M1237.96 967.785L1236.24 908.407C1236.24 908.407 1308.48 914.152 1323.94 906.133C1323.94 906.133 1342.82 808.938 1320.3 755.114L1319.84 753.018L1167.38 735.205L1157.9 821.523C1152.76 806.396 1111.32 790.297 1100.24 811.962C1076.23 858.906 1162.08 890.514 1162.08 890.514L1153.36 968.499" fill="#5E93D1"/>
</g>
<path id="Fill 4" opacity="0.400274" fill-rule="evenodd" clip-rule="evenodd" d="M1236.24 908.405L1187.52 897.973L1236 930.683L1236.24 908.405Z" fill="black"/>
<path id="Fill 6_2" fill-rule="evenodd" clip-rule="evenodd" d="M1276.42 811.373L1293.25 852.478L1273.08 852.734L1276.42 811.373Z" fill="#2437A8"/>
<path id="Fill 8_2" fill-rule="evenodd" clip-rule="evenodd" d="M1257.23 823.054C1258.23 828.589 1254.55 833.886 1249.01 834.888C1243.47 835.89 1238.16 832.213 1237.16 826.68C1236.15 821.144 1239.83 815.846 1245.38 814.844C1250.92 813.844 1256.22 817.518 1257.23 823.054Z" fill="#0D0B6D"/>
<path id="Fill 10_2" fill-rule="evenodd" clip-rule="evenodd" d="M1310.17 823.054C1311.18 828.589 1307.5 833.886 1301.95 834.888C1296.41 835.89 1291.11 832.213 1290.1 826.68C1289.1 821.144 1292.78 815.846 1298.32 814.844C1303.87 813.844 1309.17 817.518 1310.17 823.054Z" fill="#0D0B6D"/>
<g id="Group 15">
<path id="Fill 12_2" fill-rule="evenodd" clip-rule="evenodd" d="M1255.49 864.373C1255.49 864.373 1262.54 875.793 1276.51 874.826L1255.49 864.373Z" fill="white"/>
<path id="Stroke 14" d="M1255.49 864.373C1255.49 864.373 1262.54 875.793 1276.51 874.826" stroke="#252535" stroke-width="4"/>
</g>
<path id="Path" fill-rule="evenodd" clip-rule="evenodd" d="M1158.82 822.442C1147.43 810.654 1135.04 805.659 1127.53 803.585L1128.96 773.836L1200.58 761.363C1195.64 794.552 1176.47 812.66 1158.82 822.442Z" fill="#EACB47"/>
<path id="Fill 18" fill-rule="evenodd" clip-rule="evenodd" d="M1324.52 766.719C1318.07 760.589 1276.02 758.69 1225.47 762.578C1213.71 763.482 1202.44 764.622 1192.02 765.942C1157.56 770.264 1132.2 776.412 1128.08 781.819C1123.5 714.258 1164.93 674.022 1219.17 670.278C1254.76 667.819 1287.03 681.689 1306.35 710.587C1316.23 725.398 1322.74 744.169 1324.52 766.719Z" fill="#393954"/>
<path id="Fill 22" fill-rule="evenodd" clip-rule="evenodd" d="M1325.34 768.058H1325.32C1325.25 767.588 1324.97 767.136 1324.52 766.72C1318.07 760.59 1276.02 758.691 1225.47 762.579C1213.71 763.483 1202.44 764.622 1192.02 765.942C1206.84 751.873 1233.96 729.63 1265.96 719.648C1279.64 715.38 1293.52 712.27 1306.35 710.588C1337.49 706.465 1362.48 710.696 1363.73 726.845C1365.34 747.858 1330.71 765.454 1325.34 768.058Z" fill="#161629"/>
</g>
</g>
<g id="Man / Legs / 1">
<g id="Group 21">
<g id="Shoes">
<path id="Shoes_2" fill-rule="evenodd" clip-rule="evenodd" d="M885.104 2034.95L938.447 1986.07L919.917 1936.63L805.751 2021.33L898.231 2182.63C898.231 2182.63 901.203 2142.54 896.368 2098.14C893.028 2067.47 885.104 2034.95 885.104 2034.95ZM1395.34 2143.07L1383.16 2103.83L1331.57 2106.55L1374.5 2214.31L1539.41 2118.86C1490.47 2104.06 1395.34 2143.07 1395.34 2143.07Z" fill="#0D0B6D"/>
</g>
<g id="Legs skin">
<path id="Skin" fill-rule="evenodd" clip-rule="evenodd" d="M924.999 1998.53L919.136 1936.58L853.427 1986.27L885.103 2034.95L924.999 1998.53ZM1385.3 2110.46L1334.3 2115.05L1353.13 2160.66L1395.34 2143.07L1385.3 2110.46Z" fill="#E576C6"/>
</g>
<g id="Pants">
<path id="Pants_2" d="M1126.18 1528.74L1058.44 1308.47H1232.27L1323.76 1308.48C1323.93 1362.35 1317.59 1451.1 1283.99 1552.15L1390.64 2054.47C1391.97 2060.78 1389.73 2067.08 1385.18 2071.15L1401.38 2128.69L1335.14 2147.98L1319.37 2094.36L1318.95 2094.49C1309.56 2097.6 1299.45 2092.38 1296.56 2082.97L1191.19 1740.27C1179.31 1757.79 1166.36 1775.27 1152.28 1792.63C1063.18 1902.56 1007.64 1961.84 979.081 1990.36C968.885 2000.56 953.023 2001.06 942.265 1992.72L901.535 2026.26L861.094 1970.63L901.345 1937.48C894.894 1927.14 895.956 1913.69 904.201 1904.51C945.242 1858.71 1060.74 1718.86 1126.18 1528.74L1126.18 1528.74Z" fill="#19141E"/>
<mask id="mask0_0_1309" style="mask-type:alpha" maskUnits="userSpaceOnUse" x="861" y="1308" width="541" height="840">
<path id="Pants_3" d="M1126.18 1528.74L1058.44 1308.47H1232.27L1323.76 1308.48C1323.93 1362.35 1317.59 1451.1 1283.99 1552.15L1390.64 2054.47C1391.97 2060.78 1389.73 2067.08 1385.18 2071.15L1401.38 2128.69L1335.14 2147.98L1319.37 2094.36L1318.95 2094.49C1309.56 2097.6 1299.45 2092.38 1296.56 2082.97L1191.19 1740.27C1179.31 1757.79 1166.36 1775.27 1152.28 1792.63C1063.18 1902.56 1007.64 1961.84 979.081 1990.36C968.885 2000.56 953.023 2001.06 942.265 1992.72L901.535 2026.26L861.094 1970.63L901.345 1937.48C894.894 1927.14 895.956 1913.69 904.201 1904.51C945.242 1858.71 1060.74 1718.86 1126.18 1528.74L1126.18 1528.74Z" fill="white"/>
</mask>
<g mask="url(#mask0_0_1309)">
</g>
</g>
<g id="Overlay">
<path id="Path_2" opacity="0.0987491" fill-rule="evenodd" clip-rule="evenodd" d="M1319.37 2094.36L1318.95 2094.49C1309.56 2097.6 1299.45 2092.38 1296.56 2082.97L1191.19 1740.27L1126.18 1528.74L1058.45 1308.47H1232.27L1283.99 1552.15L1390.64 2054.47C1391.97 2060.78 1389.73 2067.08 1385.18 2071.15L1401.38 2128.69L1335.15 2147.98L1319.37 2094.36Z" fill="white"/>
</g>
<g id="Pants line">
<path id="Pants line_2" d="M1354.9 2081.04L1327 2090.94L1215.06 1702.81L1145.99 1463.37L1101.33 1308.48H1157.95L1167.9 1347.54L1244.6 1648.39L1354.9 2081.04Z" fill="#EFEFEF"/>
</g>
</g>
</g>
<g id="Man / Body / 5">
<g id="Group 36">
<g id="Skin color">
<path id="Mask" fill-rule="evenodd" clip-rule="evenodd" d="M1138.82 956.56C1143.44 964.632 1163.7 994.476 1211.72 997.299C1258.1 1000 1254.66 975.448 1252.24 967.237C1251.15 966.94 1250.07 966.639 1248.97 966.336C1238.77 963.513 1227.92 960.508 1213.05 958.968C1172.47 954.764 1169.28 954.456 1138.82 956.56ZM1506.43 1086.75C1484.36 1130.09 1406.88 1272.36 1351.64 1249.67C1310.28 1232.68 1260.77 1091.81 1260.77 1091.81L1341.25 1043.91L1377.41 1140.72L1451.26 1060.5C1448.75 1044.6 1446.74 1023.82 1451.74 1016.5C1460.25 1004.03 1503.3 965.613 1503.3 965.613L1511.14 1030.7L1512.51 1025.21C1512.51 1024.91 1512.59 1024.58 1512.74 1024.22C1512.76 1024.19 1512.77 1024.15 1512.79 1024.12L1515.96 1011.42C1514.63 1010.74 1514.08 1009.79 1514.66 1008.46C1515.12 1007.39 1516.14 1006.21 1517.57 1004.97L1528.39 961.606C1528.39 961.606 1531.94 963.186 1537.15 965.553C1545.52 963.826 1575.85 984.443 1576.31 984.756L1576.31 984.76C1582.49 988.748 1567.8 1054.67 1555.87 1066.91C1547.38 1075.63 1520.97 1083.14 1506.43 1086.75ZM1013.37 1380.7L1018.3 1390.06C1018.3 1390.06 1022.76 1397.71 1027.44 1411.05C1029.16 1415.99 1029.99 1420.21 1030.85 1424.64C1032.32 1432.18 1033.9 1440.31 1040.27 1453.53C1051.74 1477.32 1031.22 1467.51 1023.87 1457.12C1021.45 1453.71 1020.17 1449.79 1018.93 1446.03C1017.24 1440.86 1015.64 1435.99 1011.33 1433.15C1011.12 1433.49 1010.88 1433.85 1010.62 1434.23C1007.87 1438.32 1002.87 1445.79 999.96 1477.15C999.39 1483.31 1002.18 1503.28 1002.18 1503.28C1002.19 1503.73 1002.19 1504.21 1002.2 1504.72C1002.31 1511.07 1002.5 1521.89 996.196 1523.65C994.508 1524.13 992.31 1522.26 992.31 1522.26C992.31 1522.26 992.97 1530.07 986.008 1531.62C983.27 1532.23 977.832 1515.37 977.832 1515.37C977.832 1515.37 977.004 1523.93 971.804 1524.89C970.334 1525.16 952.978 1476.3 952.978 1476.3L954.022 1487.33L956.326 1498.64C956.326 1498.64 956.14 1504.72 951.254 1505.8C949.314 1506.22 945.59 1496.08 942.1 1484.14C936.672 1465.56 936.782 1451.61 938.38 1437.73C938.767 1434.36 939.042 1431.44 939.294 1428.76C940.299 1418.09 940.949 1411.19 946.916 1394.75C947.809 1392.29 949.007 1389.47 950.346 1386.56C946.249 1351.2 934.706 1247.69 936.12 1215.92C937.834 1177.37 978.67 1091.81 978.67 1091.81L1061.58 1138.16L1015.88 1221.42L1013.37 1380.7Z" fill="#E576C6"/>
</g>
<g id="T-Shirt">
<path id="T-Shirt_2" fill-rule="evenodd" clip-rule="evenodd" d="M1059.08 1309.46H1325.06L1334.8 1145.28L1381.48 1118.07L1348.78 1042.88L1348.49 1042.94C1347.13 1040.2 1345.63 1037.37 1344 1034.42C1323.7 997.856 1288.98 977.237 1252.24 967.236C1251.64 967.074 1251.4 966.958 1251.37 966.997C1251.3 967.093 1252.58 968.166 1252.94 971.916C1253.45 977.157 1251.8 984.271 1250.06 986.435C1245.95 991.534 1239.74 994.429 1237.25 995.11C1234.75 995.791 1232.77 996.187 1230.57 996.626C1229.02 996.933 1220.22 997.585 1218.7 997.506C1206.17 996.853 1200.04 996.273 1192.15 994.4C1189.36 993.737 1186.47 992.981 1183.04 991.54C1182.4 991.27 1181.7 990.981 1180.94 990.671C1177.24 989.15 1172.31 987.124 1167.3 984.326C1162.01 981.367 1156.61 977.465 1152.71 973.48C1152.33 973.095 1151.96 972.721 1151.61 972.357C1147.51 968.178 1144.71 965.328 1142.77 962.47C1141.46 960.535 1140.96 959.892 1140.67 959.515C1140.5 959.286 1140.39 959.155 1140.23 958.892C1139.8 958.198 1139.43 957.585 1139.33 957.174C1139.21 956.732 1139.62 956.544 1139.6 956.499C1139.59 956.471 1139.41 956.5 1138.82 956.559C1120.1 958.408 1099.98 963.24 1078.04 973.48C1010.18 1005.13 970.516 1084.66 970.516 1084.66L1054.62 1147.55L1059.08 1309.46Z" fill="#5E93D1"/>
</g>
<path id="Stroke 16" opacity="0.200521" d="M1054.61 1147.55L1075.95 1161.98L1127.23 1102.44" stroke="black" stroke-width="5"/>
<path id="Phone" d="M1541.67 1042.29L1537.95 1060.47H1477.77L1506.16 915.742H1566.34C1564.78 923.695 1561.1 942.427 1555.32 971.937L1543.48 966.468L1539.8 965.45L1536.9 965.612L1535.64 966.468V969.985L1548.5 988.433L1538.66 992.709L1523.52 1000.63L1519.15 1003.65L1517.45 1005.21L1516.07 1006.45L1515.19 1007.51L1514.66 1008.46L1514.43 1009.7L1514.66 1010.24L1514.92 1010.66L1515.3 1011.04L1520.27 1012.79L1531.59 1009.7H1542.77L1527.84 1012.79L1518 1018.66L1514.66 1021.8L1512.77 1024.11V1026.22L1516.07 1027.71L1536.9 1025.32L1530 1029.06L1525.43 1031.89L1521.24 1034.04L1518 1038.21V1040.27L1519.15 1041.48L1522.06 1043.02H1526.49H1535.43L1541.67 1042.29Z" fill="#5E93D1"/>
<path id="Fill 23" fill-rule="evenodd" clip-rule="evenodd" d="M1477.77 1060.47H1467.81L1496.19 915.742H1506.15L1477.77 1060.47Z" fill="#020101"/>
<path id="Fill 34" fill-rule="evenodd" clip-rule="evenodd" d="M1516.51 932.547C1515.68 936.774 1513.22 939.853 1511.01 939.422C1508.8 938.992 1507.68 935.217 1508.51 930.99C1509.34 926.761 1511.81 923.683 1514.02 924.112C1516.23 924.544 1517.35 928.319 1516.51 932.547Z" fill="#020101"/>
</g>
</g>
</g>
</g>
</svg>
