<svg width="3966" height="2608" viewBox="0 0 3966 2608" fill="none" xmlns="http://www.w3.org/2000/svg">
<g id="Illustration 7">
<g id="Background">
<g id="Background Object / Chair / 5">
<g id="Group 14">
<path id="Fill 1" fill-rule="evenodd" clip-rule="evenodd" d="M446.699 1620.05L386.309 1762.02H358.923L395.254 1613.09L446.699 1620.05Z" fill="#B6D4FF"/>
<path id="Fill 2" fill-rule="evenodd" clip-rule="evenodd" d="M755.2 1620.05L694.811 1762.02H667.426L703.757 1613.09L755.2 1620.05Z" fill="#B6D4FF"/>
<path id="Fill 3" fill-rule="evenodd" clip-rule="evenodd" d="M1216 1762.02H1188.61L1128.23 1620.05L1179.67 1613.09L1216 1762.02Z" fill="#B6D4FF"/>
<path id="Fill 4" fill-rule="evenodd" clip-rule="evenodd" d="M907.499 1762.02H880.113L819.723 1620.05L871.168 1613.09L907.499 1762.02Z" fill="#B6D4FF"/>
<path id="Fill 5" fill-rule="evenodd" clip-rule="evenodd" d="M1182.32 1287.79V1631.56L825.183 1632.32L766.452 1292.26L1182.32 1287.79ZM1155.12 1315.29L798.694 1319.13L848.079 1605.06L1155.12 1604.4V1315.29Z" fill="#B6D4FF"/>
<path id="Fill 6" fill-rule="evenodd" clip-rule="evenodd" d="M713.668 1076.48L809.666 1632.32H390.868L294.866 1076.48H713.668Z" fill="#CCE3FF"/>
<path id="Fill 7" fill-rule="evenodd" clip-rule="evenodd" d="M826.284 1076.48L922.284 1632.32H508.564L412.564 1076.48H826.284Z" fill="#DCEEFF"/>
<path id="Fill 8" fill-rule="evenodd" clip-rule="evenodd" d="M928.862 1632.32H436.392C411.25 1632.32 390.867 1611.93 390.867 1586.78V1481.82C390.867 1456.67 411.25 1436.28 436.392 1436.28H928.862C954.006 1436.28 974.389 1456.67 974.389 1481.82V1586.78C974.389 1611.93 954.006 1632.32 928.862 1632.32Z" fill="#CCE3FF"/>
<path id="Fill 10" fill-rule="evenodd" clip-rule="evenodd" d="M1184.17 1632.32H748.007V1436.28H1184.17V1632.32Z" fill="#DCEEFF"/>
<path id="Fill 12" fill-rule="evenodd" clip-rule="evenodd" d="M748.008 1287.79V1631.56L390.867 1632.32L332.134 1292.26L748.008 1287.79ZM720.808 1315.29L364.377 1319.13L413.763 1605.06L720.808 1604.4V1315.29Z" fill="#B6D4FF"/>
</g>
</g>
<g id="Background Object / Closet / 1">
<g id="Group 36">
<path id="Fill 1_2" fill-rule="evenodd" clip-rule="evenodd" d="M2379.2 1763.32H2421.65V1625.4H2379.2V1763.32Z" fill="#DCEEFF"/>
<path id="Fill 2_2" fill-rule="evenodd" clip-rule="evenodd" d="M2732.83 1763.32H2775.28V1625.4H2732.83V1763.32Z" fill="#DCEEFF"/>
<path id="Fill 3_2" fill-rule="evenodd" clip-rule="evenodd" d="M2529.78 1763.32H2572.23V1625.4H2529.78V1763.32Z" fill="#B6D4FF"/>
<path id="Fill 4_2" fill-rule="evenodd" clip-rule="evenodd" d="M2883.4 1763.32H2925.86V1625.4H2883.4V1763.32Z" fill="#B6D4FF"/>
<path id="Fill 5_2" fill-rule="evenodd" clip-rule="evenodd" d="M2529.53 1649.87H2925.61V478.258H2529.53V1649.87Z" fill="#B6D4FF"/>
<path id="Fill 6_2" fill-rule="evenodd" clip-rule="evenodd" d="M2380 1649.87H2776.08V478.258H2380V1649.87Z" fill="#DCEEFF"/>
<path id="Fill 7_2" fill-rule="evenodd" clip-rule="evenodd" d="M2649.54 398.589C2649.54 432.253 2631.76 461.789 2605.09 478.258H2507.16C2480.48 461.789 2462.7 432.253 2462.7 398.589C2462.7 382.923 2466.55 368.175 2473.35 355.223H2638.9C2645.69 368.175 2649.54 382.923 2649.54 398.589Z" fill="#DCEEFF"/>
<path id="Fill 9" fill-rule="evenodd" clip-rule="evenodd" d="M2674.38 478.237H2714.76V324H2674.38V478.237Z" fill="#DCEEFF"/>
<path id="Fill 11" fill-rule="evenodd" clip-rule="evenodd" d="M2634 478.237H2674.38V324H2634V478.237Z" fill="#CCE3FF"/>
<path id="Fill 12_2" fill-rule="evenodd" clip-rule="evenodd" d="M2714.76 478.237H2755.13V324H2714.76V478.237Z" fill="#CCE3FF"/>
<path id="Fill 13" fill-rule="evenodd" clip-rule="evenodd" d="M2863.6 478.237H2755.13V324H2863.6C2868.13 324 2871.8 327.672 2871.8 332.205V470.032C2871.8 474.563 2868.13 478.237 2863.6 478.237Z" fill="#B6D4FF"/>
<path id="Fill 14" fill-rule="evenodd" clip-rule="evenodd" d="M2790.71 385.303H2836.22V370.031H2790.71V385.303Z" fill="#CCE3FF"/>
<path id="Fill 15" fill-rule="evenodd" clip-rule="evenodd" d="M2415.46 1611.26H2740.78V1274.05H2415.46V1611.26Z" fill="#CCE3FF"/>
<path id="Fill 16" fill-rule="evenodd" clip-rule="evenodd" d="M2415.46 1611.26H2527.69V1274.05H2415.46V1611.26Z" fill="#B6D4FF"/>
<path id="Fill 17" fill-rule="evenodd" clip-rule="evenodd" d="M2415.46 1232.2H2740.78V894.982H2415.46V1232.2Z" fill="#CCE3FF"/>
<path id="Fill 18" fill-rule="evenodd" clip-rule="evenodd" d="M2415.46 1232.2H2527.69V894.982H2415.46V1232.2Z" fill="#B6D4FF"/>
<path id="Fill 19" fill-rule="evenodd" clip-rule="evenodd" d="M2415.46 853.132H2740.78V515.916H2415.46V853.132Z" fill="#CCE3FF"/>
<path id="Fill 20" fill-rule="evenodd" clip-rule="evenodd" d="M2415.46 853.132H2527.69V515.916H2415.46V853.132Z" fill="#B6D4FF"/>
<path id="Fill 21" fill-rule="evenodd" clip-rule="evenodd" d="M2493.35 1611.26H2525.55V1488.27H2493.35V1611.26Z" fill="#DCEEFF"/>
<path id="Fill 22" fill-rule="evenodd" clip-rule="evenodd" d="M2461.15 1611.26H2493.35V1488.27H2461.15V1611.26Z" fill="#CCE3FF"/>
<path id="Fill 23" fill-rule="evenodd" clip-rule="evenodd" d="M2525.55 1611.26H2557.75V1488.27H2525.55V1611.26Z" fill="#CCE3FF"/>
<path id="Fill 24" fill-rule="evenodd" clip-rule="evenodd" d="M2642.58 1611.26H2557.75V1488.27H2642.58C2647.11 1488.27 2650.79 1491.94 2650.79 1496.47V1603.06C2650.79 1607.59 2647.11 1611.26 2642.58 1611.26Z" fill="#B6D4FF"/>
<path id="Fill 25" fill-rule="evenodd" clip-rule="evenodd" d="M2571.53 1518.36H2637V1506.18H2571.53V1518.36Z" fill="#CCE3FF"/>
<path id="Fill 26" fill-rule="evenodd" clip-rule="evenodd" d="M2586.12 1537.15H2622.41V1524.97H2586.12V1537.15Z" fill="#CCE3FF"/>
<path id="Fill 27" fill-rule="evenodd" clip-rule="evenodd" d="M2606.05 800.908C2603.55 821.884 2592.93 840.38 2577.41 853.132H2475.92C2460.4 840.38 2449.78 821.884 2447.27 800.908H2606.05Z" fill="#DCEEFF"/>
<path id="Fill 28" fill-rule="evenodd" clip-rule="evenodd" d="M2606.05 757.312C2601.33 796.956 2567.58 827.713 2526.66 827.713C2485.74 827.713 2452 796.956 2447.27 757.312H2606.05Z" fill="#DCEEFF"/>
<path id="Fill 29" fill-rule="evenodd" clip-rule="evenodd" d="M2606.05 713.779C2603.55 734.755 2592.93 753.251 2577.41 766.003H2475.92C2460.4 753.251 2449.78 734.755 2447.27 713.779H2606.05Z" fill="#DCEEFF"/>
<path id="Fill 30" fill-rule="evenodd" clip-rule="evenodd" d="M2606.05 670.18C2601.33 709.824 2567.58 740.581 2526.66 740.581C2485.74 740.581 2452 709.824 2447.27 670.18H2606.05Z" fill="#DCEEFF"/>
<path id="Fill 31" fill-rule="evenodd" clip-rule="evenodd" d="M2553.77 1151.19C2553.77 1182.06 2550.48 1210.3 2544.99 1232.2H2487.48C2482 1210.3 2478.7 1182.06 2478.7 1151.19" fill="#ECF6FF"/>
<path id="Stroke 32" d="M2550.92 1164.76C2563.96 1167.33 2572.45 1179.99 2569.87 1193.03C2567.3 1206.07 2554.64 1214.55 2541.6 1211.98" stroke="#ECF6FF" stroke-width="8"/>
<path id="Fill 33" fill-rule="evenodd" clip-rule="evenodd" d="M2668.97 1151.19C2668.97 1182.06 2665.68 1210.3 2660.19 1232.2H2602.68C2597.2 1210.3 2593.9 1182.06 2593.9 1151.19" fill="#ECF6FF"/>
<path id="Stroke 34" d="M2653.66 1164.76C2666.7 1167.33 2675.18 1179.99 2672.61 1193.03C2670.03 1206.07 2657.37 1214.55 2644.33 1211.98" stroke="#ECF6FF" stroke-width="8"/>
</g>
</g>
<g id="Background Object / Bedside-table / 5">
<g id="Group 23">
<path id="Fill 1_3" fill-rule="evenodd" clip-rule="evenodd" d="M1747.97 1358.24C1747.97 1369.29 1756.92 1378.25 1767.97 1378.25H1947.92V1338.23H1767.97C1756.92 1338.23 1747.97 1347.19 1747.97 1358.24Z" fill="#CCE3FF"/>
<path id="Fill 3_3" fill-rule="evenodd" clip-rule="evenodd" d="M1869 1358.24C1869 1364.64 1874.18 1369.82 1880.58 1369.82H1947.44C1947.7 1369.82 1947.92 1369.61 1947.92 1369.34V1347.14C1947.92 1346.87 1947.7 1346.66 1947.44 1346.66H1880.58C1874.18 1346.66 1869 1351.84 1869 1358.24Z" fill="#DCEEFF"/>
<path id="Fill 5_3" fill-rule="evenodd" clip-rule="evenodd" d="M1722.85 1378.25V1418.26H1919.27C1930.31 1418.26 1939.27 1409.3 1939.27 1398.25C1939.27 1387.2 1930.31 1378.25 1919.27 1378.25H1722.85Z" fill="#CCE3FF"/>
<path id="Fill 7_3" fill-rule="evenodd" clip-rule="evenodd" d="M1722.85 1386.78V1409.73H1803.61C1809.94 1409.73 1815.08 1404.59 1815.08 1398.25C1815.08 1391.92 1809.94 1386.78 1803.61 1386.78H1722.85Z" fill="#DCEEFF"/>
<path id="Fill 9_2" fill-rule="evenodd" clip-rule="evenodd" d="M1798.31 1313.83L1811.08 1189.3H1851.03L1863.81 1313.83C1865.15 1326.89 1854.91 1338.23 1841.8 1338.23H1820.32C1807.21 1338.23 1796.97 1326.89 1798.31 1313.83Z" fill="#DCEEFF"/>
<path id="Fill 12_3" fill-rule="evenodd" clip-rule="evenodd" d="M1653.6 1703.4H1896.8V1418.26H1653.6V1703.4Z" fill="#DCEEFF"/>
<path id="Fill 14_2" fill-rule="evenodd" clip-rule="evenodd" d="M1896.8 1703.4H2058.63V1418.26H1896.8V1703.4Z" fill="#B6D4FF"/>
<path id="Fill 15_2" fill-rule="evenodd" clip-rule="evenodd" d="M1675.4 1676.11H1870.82V1571.49H1675.4V1676.11Z" fill="#CCE3FF"/>
<path id="Fill 16_2" fill-rule="evenodd" clip-rule="evenodd" d="M1675.4 1547.99H1870.82V1443.37H1675.4V1547.99Z" fill="#CCE3FF"/>
<path id="Fill 17_2" fill-rule="evenodd" clip-rule="evenodd" d="M1653.6 1770.8H1677.43V1703.4H1653.6V1770.8Z" fill="#DCEEFF"/>
<path id="Fill 18_2" fill-rule="evenodd" clip-rule="evenodd" d="M2034.8 1770.8H2058.63V1703.4H2034.8V1770.8Z" fill="#B6D4FF"/>
<path id="Fill 19_2" fill-rule="evenodd" clip-rule="evenodd" d="M1872.97 1770.8H1896.8V1703.4H1872.97V1770.8Z" fill="#DCEEFF"/>
<path id="Fill 20_2" fill-rule="evenodd" clip-rule="evenodd" d="M1812.86 1770.8H1836.69V1703.4H1812.86V1770.8Z" fill="#B6D4FF"/>
<path id="Fill 21_2" fill-rule="evenodd" clip-rule="evenodd" d="M1753.72 1495.68C1753.72 1506.39 1762.4 1515.07 1773.11 1515.07C1783.81 1515.07 1792.49 1506.39 1792.49 1495.68C1792.49 1484.97 1783.81 1476.29 1773.11 1476.29C1762.4 1476.29 1753.72 1484.97 1753.72 1495.68Z" fill="#B6D4FF"/>
<path id="Fill 22_2" fill-rule="evenodd" clip-rule="evenodd" d="M1753.72 1623.8C1753.72 1634.51 1762.4 1643.19 1773.11 1643.19C1783.81 1643.19 1792.49 1634.51 1792.49 1623.8C1792.49 1613.09 1783.81 1604.41 1773.11 1604.41C1762.4 1604.41 1753.72 1613.09 1753.72 1623.8Z" fill="#B6D4FF"/>
</g>
</g>
<g id="Pictures">
<g id="Background Object / Picture / 3">
<g id="Group 10">
<path id="Fill 1_4" fill-rule="evenodd" clip-rule="evenodd" d="M1145.05 436.409H935.458V125.6H1145.05V436.409Z" fill="#DCEEFF"/>
<path id="Stroke 2" fill-rule="evenodd" clip-rule="evenodd" d="M1145.05 436.409H935.458V125.6H1145.05V436.409Z" stroke="#DCEEFF" stroke-width="9"/>
<path id="Fill 4_3" fill-rule="evenodd" clip-rule="evenodd" d="M1339.6 436.409H946.802V125.6H1339.6V436.409Z" fill="white"/>
<path id="Stroke 5" fill-rule="evenodd" clip-rule="evenodd" d="M1339.6 436.409H946.802V125.6H1339.6V436.409Z" stroke="#DCEEFF" stroke-width="9"/>
<path id="Fill 7_4" fill-rule="evenodd" clip-rule="evenodd" d="M1303.45 402.596H982.957V159.412H1303.45V402.596Z" fill="white"/>
<path id="Stroke 8" fill-rule="evenodd" clip-rule="evenodd" d="M1303.45 402.596H982.957V159.412H1303.45V402.596Z" stroke="#DCEEFF" stroke-width="9"/>
<path id="Fill 9_3" fill-rule="evenodd" clip-rule="evenodd" d="M1222.37 343.849H1062.4V218.158H1222.37V343.849Z" fill="#B6D4FF"/>
</g>
</g>
<g id="Background Object / Pluteus / 4">
<g id="Group 7">
<path id="Fill 1_5" fill-rule="evenodd" clip-rule="evenodd" d="M1527.6 468.442H850.516V440H1527.6V468.442Z" fill="#DCEEFF"/>
<path id="Fill 2_3" fill-rule="evenodd" clip-rule="evenodd" d="M850.517 468.442H739.128V440H850.517V468.442Z" fill="#CCE3FF"/>
<path id="Fill 3_4" fill-rule="evenodd" clip-rule="evenodd" d="M1362.57 468.441L1309.7 551.395V468.441H1362.57Z" fill="#B6D4FF"/>
<path id="Fill 4_4" fill-rule="evenodd" clip-rule="evenodd" d="M1391.83 468.441L1338.96 551.395H1309.7L1362.57 468.441H1391.83Z" fill="#CCE3FF"/>
<path id="Fill 5_4" fill-rule="evenodd" clip-rule="evenodd" d="M974.772 468.441L921.897 551.395V468.441H974.772Z" fill="#B6D4FF"/>
<path id="Fill 6_3" fill-rule="evenodd" clip-rule="evenodd" d="M1004.03 468.441L951.158 551.395H921.897L974.772 468.441H1004.03Z" fill="#CCE3FF"/>
</g>
</g>
<g id="Background Object / Picture / 6">
<g id="Group 8">
<path id="Fill 1_6" fill-rule="evenodd" clip-rule="evenodd" d="M1510.37 435.57H1388.59V293.602H1510.37V435.57Z" fill="#DCEEFF"/>
<path id="Stroke 2_2" fill-rule="evenodd" clip-rule="evenodd" d="M1510.37 435.57H1388.59V293.602H1510.37V435.57Z" stroke="#DCEEFF" stroke-width="5"/>
<path id="Fill 4_5" fill-rule="evenodd" clip-rule="evenodd" d="M1518.8 435.57H1394.74V293.602H1518.8V435.57Z" fill="white"/>
<path id="Stroke 5_2" fill-rule="evenodd" clip-rule="evenodd" d="M1518.8 435.57H1394.74V293.602H1518.8V435.57Z" stroke="#DCEEFF" stroke-width="5"/>
<path id="Fill 7_5" fill-rule="evenodd" clip-rule="evenodd" d="M1489.44 398.628H1429.82V330.285H1489.44V398.628Z" fill="#CCE3FF"/>
</g>
</g>
<g id="Background Object / Picture / 6_2">
<g id="Group 8_2">
<path id="Fill 1_7" fill-rule="evenodd" clip-rule="evenodd" d="M867.174 435.57H745.385V293.602H867.174V435.57Z" fill="#DCEEFF"/>
<path id="Stroke 2_3" fill-rule="evenodd" clip-rule="evenodd" d="M867.174 435.57H745.385V293.602H867.174V435.57Z" stroke="#DCEEFF" stroke-width="5"/>
<path id="Fill 4_6" fill-rule="evenodd" clip-rule="evenodd" d="M875.6 435.57H751.544V293.602H875.6V435.57Z" fill="white"/>
<path id="Stroke 5_3" fill-rule="evenodd" clip-rule="evenodd" d="M875.6 435.57H751.544V293.602H875.6V435.57Z" stroke="#DCEEFF" stroke-width="5"/>
<path id="Fill 7_6" fill-rule="evenodd" clip-rule="evenodd" d="M846.236 398.628H786.624V330.285H846.236V398.628Z" fill="#CCE3FF"/>
</g>
</g>
</g>
<g id="Background Object / Flower / 3">
<g id="Group 16">
<path id="Fill 1_8" fill-rule="evenodd" clip-rule="evenodd" d="M3334.07 1149.95C3334.07 1149.95 3211.39 1420.81 3196.74 1715.31C3196.74 1715.31 3265.4 1416.87 3334.07 1149.95Z" fill="#DCEEFF"/>
<path id="Fill 3_5" fill-rule="evenodd" clip-rule="evenodd" d="M3114.57 1358.1C3114.57 1358.1 3202.87 1360.4 3216.31 1654.9C3216.31 1654.9 3178.63 1432.63 3114.57 1358.1Z" fill="#DCEEFF"/>
<path id="Fill 5_5" fill-rule="evenodd" clip-rule="evenodd" d="M3204.74 1061.68C3204.74 1061.68 3256.28 1373.26 3205.54 1690.32C3205.54 1690.32 3208.56 1359.17 3204.74 1061.68Z" fill="#DCEEFF"/>
<path id="Fill 8_2" fill-rule="evenodd" clip-rule="evenodd" d="M3274.27 1773.7H3146.78C3145.83 1773.7 3144.87 1773.68 3143.92 1773.65C3085.79 1771.47 3053.45 1697.92 3086.37 1644.86L3115.58 1597.79H3305.47L3334.67 1644.86C3367.6 1697.92 3335.26 1771.47 3277.13 1773.65C3276.18 1773.68 3275.23 1773.7 3274.27 1773.7Z" fill="#ECF6FF"/>
<path id="Stroke 11" d="M3073.2 1706.04H3347.85" stroke="#B6D4FF" stroke-width="9"/>
<path id="Stroke 14" d="M3079.57 1660.55H3342.36" stroke="#B6D4FF" stroke-width="9"/>
</g>
</g>
</g>
<g id="Person / Man / 7">
<g id="Man / Head / 1">
<g id="Group 29">
<path id="Fill 1_9" fill-rule="evenodd" clip-rule="evenodd" d="M2197.54 500.752L2403.91 505.979L2404.06 502.672L2406.52 452.076L2408.39 413.57C2409 401.232 2398.65 391.152 2386.31 392.059L2220.37 404.219C2209.97 404.965 2201.8 413.356 2201.28 423.739L2200.39 441.925L2197.93 492.859L2197.54 500.752Z" fill="#2437A8"/>
<path id="Fill 3_6" fill-rule="evenodd" clip-rule="evenodd" d="M2197.93 492.857C2227.78 496.857 2262.59 500.004 2299.81 501.799C2337.84 503.648 2373.51 503.844 2404.07 502.67L2406.52 452.075C2376.23 447.95 2340.71 444.697 2302.66 442.866C2265.44 441.07 2230.5 440.839 2200.39 441.924L2197.93 492.857Z" fill="#5E93D1"/>
<g id="Face color">
<path id="Face" d="M2287.11 692.906L2288.8 634.533C2288.8 634.533 2217.76 640.181 2202.56 632.298C2202.56 632.298 2183.99 536.748 2206.14 483.834L2206.59 481.772L2356.51 467.818L2366.54 548.003C2371.59 533.13 2411.64 518.423 2422.54 539.721C2446.15 585.87 2361.73 616.944 2361.73 616.944L2370.3 693.609" fill="#E576C6"/>
</g>
<path id="Fill 8_3" opacity="0.398112" fill-rule="evenodd" clip-rule="evenodd" d="M2288.8 634.531L2336.71 624.275L2289.03 656.432L2288.8 634.531Z" fill="black"/>
<path id="Fill 10_2" fill-rule="evenodd" clip-rule="evenodd" d="M2249.28 539.143L2232.73 579.551L2252.57 579.804L2249.28 539.143Z" fill="#405FD3"/>
<path id="Fill 12_4" fill-rule="evenodd" clip-rule="evenodd" d="M2268.16 550.624C2267.17 556.066 2270.79 561.274 2276.24 562.258C2281.69 563.242 2286.91 559.63 2287.9 554.188C2288.88 548.746 2285.26 543.539 2279.81 542.554C2274.36 541.57 2269.14 545.182 2268.16 550.624Z" fill="#0D0B6D"/>
<path id="Fill 14_3" fill-rule="evenodd" clip-rule="evenodd" d="M2216.09 550.624C2215.11 556.066 2218.73 561.274 2224.18 562.258C2229.63 563.242 2234.84 559.63 2235.83 554.188C2236.82 548.746 2233.2 543.539 2227.75 542.554C2222.3 541.57 2217.08 545.182 2216.09 550.624Z" fill="#0D0B6D"/>
<g id="Group 19">
<path id="Fill 16_3" fill-rule="evenodd" clip-rule="evenodd" d="M2269.87 591.244C2269.87 591.244 2262.94 602.471 2249.2 601.52L2269.87 591.244Z" fill="white"/>
<path id="Stroke 18" d="M2269.87 591.244C2269.87 591.244 2262.94 602.471 2249.2 601.52" stroke="#252535" stroke-width="4"/>
</g>
<path id="Path" fill-rule="evenodd" clip-rule="evenodd" d="M2198.16 513.549L2200.52 501.416C2204.59 485.276 2326.99 491.438 2326.99 491.438L2325.32 513.146L2327.38 523.522C2426.42 526.355 2503.27 517.716 2503.99 502.798C2504.79 486.521 2414.65 468.933 2302.66 463.513C2190.68 458.094 2099.26 466.896 2098.47 483.173C2097.94 494.055 2138.05 505.523 2198.16 513.549L2198.16 513.549Z" fill="#2437A8"/>
<path id="Path_2" fill-rule="evenodd" clip-rule="evenodd" d="M2349.53 573.071C2349.68 572.73 2349.84 572.383 2350 572.031C2365.64 538.627 2393.05 531.681 2400.61 530.373C2401.9 519.562 2402.89 510.922 2402.89 510.922C2404.1 496.149 2326.99 491.438 2326.99 491.438C2326.99 491.438 2319.46 561.025 2324.22 566.963C2327.18 570.664 2337.58 572.376 2349.53 573.071Z" fill="#19141E"/>
</g>
</g>
<g id="Man / Legs / 1">
<g id="Group 17">
<g id="Shoes">
<path id="Shoes_2" fill-rule="evenodd" clip-rule="evenodd" d="M2236.24 2011.74L2235.68 1963.71L2297.7 1932.53L2306.7 2069.81H2091.84C2128.39 2028.7 2236.24 2011.74 2236.24 2011.74ZM2505.53 2013.61L2504.97 1959.67L2568.21 1956.67L2573.97 2010.63L2588.67 2069.81H2441.61C2460.1 2019.53 2505.53 2013.61 2505.53 2013.61Z" fill="#0D0B6D"/>
</g>
<g id="Legs skin">
<path id="Skin" fill-rule="evenodd" clip-rule="evenodd" d="M2504.97 1959.67L2566.98 1941.06L2573.97 2010.63L2505.52 2013.61L2504.97 1959.67ZM2235.68 1963.72L2297.7 1945.11L2302.7 2008.76L2236.24 2011.74L2235.68 1963.72Z" fill="#E576C6"/>
</g>
<g id="Pants">
<path id="Pants_2" d="M2332.88 1273.24L2478.41 1991.43H2590L2456.53 1042.43H2192.54L2201.73 1987.77L2235.97 1988.26L2301.17 1989.22H2301.41L2318.03 1989.46L2332.88 1273.24Z" fill="#2F2F3D"/>
</g>
<path id="Fill 15_3" opacity="0.200893" fill-rule="evenodd" clip-rule="evenodd" d="M2332.48 1267.92L2307.37 1156.81L2326.26 1493.66L2332.48 1267.92Z" fill="black"/>
</g>
</g>
<g id="Man / Body / 5">
<g id="Group 17_2">
<g id="Hands">
<path id="Hands_2" fill-rule="evenodd" clip-rule="evenodd" d="M2127.67 1074.83C2127.67 1074.83 2154.61 1078.1 2159.74 1089.76C2174.41 1123.1 2144.01 1182.71 2144.01 1182.71C2144.01 1182.71 2156.89 1175.11 2159.45 1181.76C2160.6 1184.71 2163.18 1208.33 2114.94 1209.92C2109.81 1210.09 2097.49 1200.01 2097.49 1200.01C2097.49 1200.01 2106.48 1216.6 2092.72 1219.85C2092.72 1219.85 2070.55 1187.74 2070.21 1180.6C2069.87 1173.45 2076.99 1137.28 2080.84 1129.98C2084.68 1122.67 2127.67 1074.83 2127.67 1074.83ZM2501.12 1115.98L2509.87 1099.38L2559.15 1093.89C2562.71 1099.36 2569.42 1112.18 2572.51 1120.67C2578.47 1137.11 2579.12 1144.01 2580.13 1154.67C2580.38 1157.36 2580.66 1160.28 2581.04 1163.65C2582.64 1177.53 2582.75 1191.48 2577.32 1210.06C2573.83 1221.99 2570.11 1232.14 2568.17 1231.72C2563.28 1230.64 2563.1 1224.56 2563.1 1224.56L2565.4 1213.25L2566.44 1202.22C2566.44 1202.22 2549.09 1251.08 2547.62 1250.81C2542.42 1249.85 2541.59 1241.29 2541.59 1241.29C2541.59 1241.29 2536.15 1258.15 2533.41 1257.54C2526.45 1255.99 2527.11 1248.18 2527.11 1248.18C2527.11 1248.18 2524.91 1250.04 2523.23 1249.57C2516.92 1247.81 2517.11 1236.98 2517.22 1230.63C2517.23 1230.12 2517.24 1229.64 2517.24 1229.2C2517.24 1229.2 2520.03 1209.23 2519.46 1203.07C2516.56 1171.7 2511.55 1164.24 2508.8 1160.15C2508.54 1159.77 2508.3 1159.41 2508.09 1159.07C2503.78 1161.91 2502.18 1166.78 2500.49 1171.95C2499.26 1175.71 2497.97 1179.63 2495.56 1183.04C2488.2 1193.43 2467.68 1203.24 2479.15 1179.45C2485.52 1166.23 2487.1 1158.1 2488.57 1150.55C2489.44 1146.13 2490.26 1141.9 2491.99 1136.97C2496.66 1123.63 2501.12 1115.98 2501.12 1115.98Z" fill="#E576C6"/>
</g>
<path id="Stroke 4" opacity="0.145089" d="M2134.16 1117.9C2134.16 1117.9 2127.39 1142.62 2104.16 1150.33C2096.04 1153.02 2098.07 1184.82 2078.15 1181.02" stroke="black" stroke-width="3"/>
<g id="Sweater">
<path id="Sweater_2" d="M2382.34 695.902L2379.95 657.637L2268.85 664.494L2271.02 699.208C2208.67 723.079 2203.29 746.393 2188.36 777.041C2172.01 810.609 2155.06 913.697 2155.06 913.697L2084.06 1091.65L2171.1 1139.8L2192.51 1098.59L2191.97 1043.6L2457.94 1043.59L2459.8 975.87L2482.46 1111.71L2581.94 1116.38C2581.94 1116.38 2583.91 974.911 2564.97 893.072C2552.91 840.942 2493.99 744.075 2438.2 710.766C2424.57 702.631 2404.12 698.174 2382.34 695.902Z" fill="#72A065"/>
</g>
<path id="Stroke 11_2" opacity="0.203544" d="M2459.38 991.169L2441.07 896.133L2395.79 819.865" stroke="black" stroke-width="5"/>
<path id="Stroke 13" opacity="0.1988" d="M2195.97 1044L2187.32 905.518" stroke="black" stroke-width="5"/>
</g>
</g>
</g>
<g id="Person / Robot / 1">
<g id="Robot / Legs / 2">
<g id="Group 20">
<path id="Fill 1_10" fill-rule="evenodd" clip-rule="evenodd" d="M1669.64 2075.12H828C831.888 1975.22 893.222 1932.53 986.76 1930.17C1048.5 1762.77 1183.79 1933.56 1193.53 1801.15C1204.97 1645.43 1208.26 1461.91 1208.26 1461.91L1288.02 1463.23C1288.02 1463.23 1294.68 1561.48 1308.5 1761.66C1318.3 1903.45 1418.14 1771.95 1549.28 1857.88C1615.48 1901.26 1612.53 2006.19 1612.53 2006.19C1612.53 2006.19 1669.64 2009.05 1669.64 2075.12Z" fill="#B5B8BC"/>
<path id="Fill 3_7" fill-rule="evenodd" clip-rule="evenodd" d="M1117.18 2075.12H910.74C919.72 2030.82 958.06 1998.5 1003.22 1994.07C1011.88 1993.25 1020.78 1993.42 1029.78 1994.72C1034.96 1995.49 1040 1996.58 1044.88 1998.02C1058.26 2001.95 1070.38 2008.32 1080.74 2016.53C1099.44 2031.28 1112.48 2051.99 1117.18 2075.12Z" fill="#D7DADD"/>
<path id="Fill 5_6" fill-rule="evenodd" clip-rule="evenodd" d="M1576 2075.12H1464.28C1468.86 2054.73 1483.44 2038.22 1502.62 2031.95C1507.14 2030.47 1511.92 2029.55 1516.9 2029.3C1519.76 2029.15 1522.6 2029.23 1525.36 2029.51C1549.7 2031.99 1570.04 2050.44 1576 2075.12Z" fill="#D7DADD"/>
<path id="Fill 7_7" fill-rule="evenodd" clip-rule="evenodd" d="M1394.36 2075.12H1075.12C1073.8 2062.5 1074.1 2049.53 1076.18 2036.44C1077.26 2029.63 1078.8 2022.97 1080.74 2016.53C1102.82 1943.53 1178.44 1895.74 1258.92 1907.48C1277.94 1910.26 1295.66 1916.13 1311.62 1924.49C1366.96 1953.41 1401.1 2012.17 1394.36 2075.12Z" fill="#D7DADD"/>
<path id="Fill 9_4" fill-rule="evenodd" clip-rule="evenodd" d="M1140.88 1784.82C1138.26 1801.32 1122.19 1812.66 1104.99 1810.15C1087.78 1807.64 1075.96 1792.23 1078.58 1775.73C1081.2 1759.23 1097.26 1747.89 1114.47 1750.4C1131.67 1752.92 1143.5 1768.32 1140.88 1784.82Z" fill="#D7DADD"/>
<path id="Fill 11_2" fill-rule="evenodd" clip-rule="evenodd" d="M1369.66 1790.55C1368.58 1797.36 1361.95 1802.04 1354.85 1801.01C1347.75 1799.97 1342.87 1793.61 1343.95 1786.8C1345.03 1779.99 1351.66 1775.31 1358.76 1776.35C1365.86 1777.38 1370.74 1783.74 1369.66 1790.55Z" fill="#D7DADD"/>
<path id="Fill 13_2" fill-rule="evenodd" clip-rule="evenodd" d="M1743.76 1997.9C1741.27 2013.61 1725.96 2024.41 1709.58 2022.02C1693.19 2019.63 1681.93 2004.95 1684.42 1989.24C1686.92 1973.52 1702.22 1962.72 1718.61 1965.11C1734.99 1967.5 1746.26 1982.18 1743.76 1997.9Z" fill="#D7DADD"/>
<g id="Legs color">
<path id="Legs" fill-rule="evenodd" clip-rule="evenodd" d="M1155.98 1402.83H1346.54C1357.59 1402.83 1366.54 1394.24 1366.54 1383.65C1366.54 1373.06 1357.59 1364.47 1346.54 1364.47H1155.98C1144.93 1364.47 1135.98 1373.06 1135.98 1383.65C1135.98 1394.24 1144.93 1402.83 1155.98 1402.83ZM1198.34 1483.68H1304.18L1344.18 1402.83H1158.34L1198.34 1483.68Z" fill="#6CA1FF"/>
</g>
<g id="Overlay">
<path id="Fill 16_4" opacity="0.402158" fill-rule="evenodd" clip-rule="evenodd" d="M1303.85 1483.68H1198L1158 1402.83H1343.85L1303.85 1483.68Z" fill="black"/>
</g>
</g>
</g>
<g id="Robot / Body / 1">
<g id="Group 34">
<g id="Body color">
<path id="Body" d="M1083.34 1617.7C1098.86 1625.95 1110.27 1641.37 1112.56 1659.82C1112.82 1661.85 1112.96 1663.87 1112.99 1665.87C1113.14 1674.95 1101.71 1678.92 1096.18 1671.73C1089.87 1663.53 1081.51 1658.79 1072.77 1659.57C1056 1661.05 1044.18 1682.26 1046.37 1706.95C1046.37 1707 1046.37 1707.06 1046.38 1707.11C1047.05 1714.47 1039.54 1719.78 1032.92 1716.5C1016.16 1708.21 1003.99 1691.63 1002.22 1671.62C1000.1 1647.7 1013.5 1625.97 1034.11 1616.4V1226.11C1016.67 1216.73 1004.82 1198.32 1004.82 1177.14C1004.82 1154.1 1018.84 1134.34 1038.8 1125.91C1046.04 1111.75 1060.78 1102 1077.69 1102H1423.4C1438.81 1102 1452.41 1110.09 1460.18 1122.24C1485.62 1118.22 1511.25 1132.4 1520.75 1157.43C1531 1184.45 1518.81 1214.47 1493.41 1226.98V1620.81C1511.78 1631.59 1523.06 1652.49 1520.48 1675C1518.2 1694.96 1505.61 1711.22 1488.64 1719.09C1481.94 1722.19 1474.57 1716.69 1475.43 1709.35C1475.43 1709.3 1475.44 1709.24 1475.45 1709.19C1478.26 1684.57 1466.99 1663.06 1450.26 1661.15C1441.55 1660.15 1433.07 1664.67 1426.55 1672.71C1420.84 1679.75 1409.51 1675.49 1409.89 1666.42C1409.98 1664.42 1410.17 1662.41 1410.48 1660.38C1413.44 1640.69 1426.76 1624.74 1444.18 1617.47V1255.47C1437.99 1258.85 1430.91 1260.77 1423.4 1260.77H1083.34V1617.7Z" fill="#6CA1FF"/>
</g>
<path id="Shape" fill-rule="evenodd" clip-rule="evenodd" d="M1256.27 1217.97C1243.07 1217.97 1232.27 1207.17 1232.27 1193.97V1163.08C1232.27 1149.88 1243.07 1139.08 1256.27 1139.08H1389.03C1402.23 1139.08 1413.03 1149.88 1413.03 1163.08V1193.97C1413.03 1207.17 1402.23 1217.97 1389.03 1217.97H1256.27ZM1251.4 1178.52C1251.4 1193.64 1263.65 1205.89 1278.77 1205.89C1293.88 1205.89 1306.14 1193.64 1306.14 1178.52C1306.14 1163.41 1293.88 1151.16 1278.77 1151.16C1263.65 1151.16 1251.4 1163.41 1251.4 1178.52ZM1326.51 1178.52C1326.51 1193.64 1338.77 1205.89 1353.88 1205.89C1369 1205.89 1381.25 1193.64 1381.25 1178.52C1381.25 1163.41 1369 1151.16 1353.88 1151.16C1338.77 1151.16 1326.51 1163.41 1326.51 1178.52Z" fill="#19141E"/>
<g id="Overlay_2">
<path id="Shape_2" opacity="0.401228" fill-rule="evenodd" clip-rule="evenodd" d="M1444.18 1616.64V1255.6C1450.03 1250.11 1453.95 1246.13 1455.92 1243.66C1458.95 1239.87 1461.56 1236.21 1463.13 1234.28C1463.54 1233.77 1464.02 1232.92 1464.11 1232.74C1464.21 1232.56 1464.18 1232.55 1464.36 1232.56C1466.1 1232.7 1467.32 1232.74 1468.79 1232.74C1472.21 1232.74 1476.36 1232.36 1480.99 1231.38C1482.53 1231.05 1484.68 1230.43 1487.31 1229.55C1488.55 1229.14 1490.58 1228.28 1493.41 1226.99V1616.64H1444.18ZM1460.18 1122.24C1485.62 1118.22 1511.25 1132.4 1520.75 1157.43C1531.64 1186.13 1517.2 1218.22 1488.51 1229.11C1480.49 1232.15 1472.21 1233.22 1464.2 1232.55C1466.03 1227.75 1467.03 1222.56 1467.03 1217.14V1145.63C1467.03 1137.04 1464.51 1129.01 1460.18 1122.24ZM1047.04 1231.09C1047.44 1231.18 1047.84 1231.27 1048.26 1231.34C1049.81 1231.63 1051.61 1232.01 1053.66 1232.3C1055.87 1232.57 1058.12 1232.71 1060.4 1232.71C1091.09 1232.71 1115.97 1207.83 1115.97 1177.14C1115.97 1146.44 1091.09 1121.56 1060.4 1121.56C1052.74 1121.56 1045.44 1123.11 1038.8 1125.91C1046.04 1111.75 1060.78 1102 1077.69 1102H1132.43C1156.43 1102 1176.06 1121.63 1176.06 1145.63V1217.14C1176.06 1241.14 1156.43 1260.77 1132.43 1260.77H1083.34V1616.64H1034.11V1226.13C1034.45 1226.31 1034.79 1226.48 1035.12 1226.65L1035.11 1226.64C1038.86 1228.56 1042.86 1230.06 1047.04 1231.09Z" fill="black"/>
</g>
<path id="Shape_3" d="M1493.41 1566.25H1498.41V1561.25H1493.41V1566.25ZM1444.18 1566.25V1561.25H1439.18V1566.25H1444.18ZM1493.41 1576.25V1581.25H1498.41V1576.25H1493.41ZM1444.18 1576.25H1439.18V1581.25H1444.18V1576.25ZM1493.41 1524.25H1498.41V1519.25H1493.41V1524.25ZM1444.18 1524.25V1519.25H1439.18V1524.25H1444.18ZM1493.41 1534.25V1539.25H1498.41V1534.25H1493.41ZM1444.18 1534.25H1439.18V1539.25H1444.18V1534.25ZM1493.41 1482.25H1498.41V1477.25H1493.41V1482.25ZM1444.18 1482.25V1477.25H1439.18V1482.25H1444.18ZM1493.41 1492.25V1497.25H1498.41V1492.25H1493.41ZM1444.18 1492.25H1439.18V1497.25H1444.18V1492.25ZM1493.41 1440.25H1498.41V1435.25H1493.41V1440.25ZM1444.18 1440.25V1435.25H1439.18V1440.25H1444.18ZM1493.41 1450.25V1455.25H1498.41V1450.25H1493.41ZM1444.18 1450.25H1439.18V1455.25H1444.18V1450.25ZM1493.41 1398.25H1498.41V1393.25H1493.41V1398.25ZM1444.18 1398.25V1393.25H1439.18V1398.25H1444.18ZM1493.41 1408.25V1413.25H1498.41V1408.25H1493.41ZM1444.18 1408.25H1439.18V1413.25H1444.18V1408.25ZM1493.41 1356.25H1498.41V1351.25H1493.41V1356.25ZM1444.18 1356.25V1351.25H1439.18V1356.25H1444.18ZM1493.41 1366.25V1371.25H1498.41V1366.25H1493.41ZM1444.18 1366.25H1439.18V1371.25H1444.18V1366.25ZM1493.41 1314.25H1498.41V1309.25H1493.41V1314.25ZM1444.18 1314.25V1309.25H1439.18V1314.25H1444.18ZM1493.41 1324.25V1329.25H1498.41V1324.25H1493.41ZM1444.18 1324.25H1439.18V1329.25H1444.18V1324.25ZM1493.41 1272.25H1498.41V1267.25H1493.41V1272.25ZM1444.18 1272.25V1267.25H1439.18V1272.25H1444.18ZM1493.41 1282.25V1287.25H1498.41V1282.25H1493.41ZM1444.18 1282.25H1439.18V1287.25H1444.18V1282.25ZM1083.34 1566.25H1088.34V1561.25H1083.34V1566.25ZM1034.11 1566.25V1561.25H1029.11V1566.25H1034.11ZM1083.34 1576.25V1581.25H1088.34V1576.25H1083.34ZM1034.11 1576.25H1029.11V1581.25H1034.11V1576.25ZM1083.34 1524.25H1088.34V1519.25H1083.34V1524.25ZM1034.11 1524.25V1519.25H1029.11V1524.25H1034.11ZM1083.34 1534.25V1539.25H1088.34V1534.25H1083.34ZM1034.11 1534.25H1029.11V1539.25H1034.11V1534.25ZM1083.34 1482.25H1088.34V1477.25H1083.34V1482.25ZM1034.11 1482.25V1477.25H1029.11V1482.25H1034.11ZM1083.34 1492.25V1497.25H1088.34V1492.25H1083.34ZM1034.11 1492.25H1029.11V1497.25H1034.11V1492.25ZM1083.34 1440.25H1088.34V1435.25H1083.34V1440.25ZM1034.11 1440.25V1435.25H1029.11V1440.25H1034.11ZM1083.34 1450.25V1455.25H1088.34V1450.25H1083.34ZM1034.11 1450.25H1029.11V1455.25H1034.11V1450.25ZM1083.34 1398.25H1088.34V1393.25H1083.34V1398.25ZM1034.11 1398.25V1393.25H1029.11V1398.25H1034.11ZM1083.34 1408.25V1413.25H1088.34V1408.25H1083.34ZM1034.11 1408.25H1029.11V1413.25H1034.11V1408.25ZM1083.34 1356.25H1088.34V1351.25H1083.34V1356.25ZM1034.11 1356.25V1351.25H1029.11V1356.25H1034.11ZM1083.34 1366.25V1371.25H1088.34V1366.25H1083.34ZM1034.11 1366.25H1029.11V1371.25H1034.11V1366.25ZM1083.34 1314.25H1088.34V1309.25H1083.34V1314.25ZM1034.11 1314.25V1309.25H1029.11V1314.25H1034.11ZM1083.34 1324.25V1329.25H1088.34V1324.25H1083.34ZM1034.11 1324.25H1029.11V1329.25H1034.11V1324.25ZM1083.34 1272.25H1088.34V1267.25H1083.34V1272.25ZM1034.11 1272.25V1267.25H1029.11V1272.25H1034.11ZM1083.34 1282.25V1287.25H1088.34V1282.25H1083.34ZM1034.11 1282.25H1029.11V1287.25H1034.11V1282.25ZM1493.41 1561.25H1444.18V1571.25H1493.41V1561.25ZM1498.41 1576.25V1566.25H1488.41V1576.25H1498.41ZM1444.18 1581.25H1493.41V1571.25H1444.18V1581.25ZM1439.18 1566.25V1576.25H1449.18V1566.25H1439.18ZM1493.41 1519.25H1444.18V1529.25H1493.41V1519.25ZM1498.41 1534.25V1524.25H1488.41V1534.25H1498.41ZM1444.18 1539.25H1493.41V1529.25H1444.18V1539.25ZM1439.18 1524.25V1534.25H1449.18V1524.25H1439.18ZM1493.41 1477.25H1444.18V1487.25H1493.41V1477.25ZM1498.41 1492.25V1482.25H1488.41V1492.25H1498.41ZM1444.18 1497.25H1493.41V1487.25H1444.18V1497.25ZM1439.18 1482.25V1492.25H1449.18V1482.25H1439.18ZM1493.41 1435.25H1444.18V1445.25H1493.41V1435.25ZM1498.41 1450.25V1440.25H1488.41V1450.25H1498.41ZM1444.18 1455.25H1493.41V1445.25H1444.18V1455.25ZM1439.18 1440.25V1450.25H1449.18V1440.25H1439.18ZM1493.41 1393.25H1444.18V1403.25H1493.41V1393.25ZM1498.41 1408.25V1398.25H1488.41V1408.25H1498.41ZM1444.18 1413.25H1493.41V1403.25H1444.18V1413.25ZM1439.18 1398.25V1408.25H1449.18V1398.25H1439.18ZM1493.41 1351.25H1444.18V1361.25H1493.41V1351.25ZM1498.41 1366.25V1356.25H1488.41V1366.25H1498.41ZM1444.18 1371.25H1493.41V1361.25H1444.18V1371.25ZM1439.18 1356.25V1366.25H1449.18V1356.25H1439.18ZM1493.41 1309.25H1444.18V1319.25H1493.41V1309.25ZM1498.41 1324.25V1314.25H1488.41V1324.25H1498.41ZM1444.18 1329.25H1493.41V1319.25H1444.18V1329.25ZM1439.18 1314.25V1324.25H1449.18V1314.25H1439.18ZM1493.41 1267.25H1444.18V1277.25H1493.41V1267.25ZM1498.41 1282.25V1272.25H1488.41V1282.25H1498.41ZM1444.18 1287.25H1493.41V1277.25H1444.18V1287.25ZM1439.18 1272.25V1282.25H1449.18V1272.25H1439.18ZM1083.34 1561.25H1034.11V1571.25H1083.34V1561.25ZM1088.34 1576.25V1566.25H1078.34V1576.25H1088.34ZM1034.11 1581.25H1083.34V1571.25H1034.11V1581.25ZM1029.11 1566.25V1576.25H1039.11V1566.25H1029.11ZM1083.34 1519.25H1034.11V1529.25H1083.34V1519.25ZM1088.34 1534.25V1524.25H1078.34V1534.25H1088.34ZM1034.11 1539.25H1083.34V1529.25H1034.11V1539.25ZM1029.11 1524.25V1534.25H1039.11V1524.25H1029.11ZM1083.34 1477.25H1034.11V1487.25H1083.34V1477.25ZM1088.34 1492.25V1482.25H1078.34V1492.25H1088.34ZM1034.11 1497.25H1083.34V1487.25H1034.11V1497.25ZM1029.11 1482.25V1492.25H1039.11V1482.25H1029.11ZM1083.34 1435.25H1034.11V1445.25H1083.34V1435.25ZM1088.34 1450.25V1440.25H1078.34V1450.25H1088.34ZM1034.11 1455.25H1083.34V1445.25H1034.11V1455.25ZM1029.11 1440.25V1450.25H1039.11V1440.25H1029.11ZM1083.34 1393.25H1034.11V1403.25H1083.34V1393.25ZM1088.34 1408.25V1398.25H1078.34V1408.25H1088.34ZM1034.11 1413.25H1083.34V1403.25H1034.11V1413.25ZM1029.11 1398.25V1408.25H1039.11V1398.25H1029.11ZM1083.34 1351.25H1034.11V1361.25H1083.34V1351.25ZM1088.34 1366.25V1356.25H1078.34V1366.25H1088.34ZM1034.11 1371.25H1083.34V1361.25H1034.11V1371.25ZM1029.11 1356.25V1366.25H1039.11V1356.25H1029.11ZM1083.34 1309.25H1034.11V1319.25H1083.34V1309.25ZM1088.34 1324.25V1314.25H1078.34V1324.25H1088.34ZM1034.11 1329.25H1083.34V1319.25H1034.11V1329.25ZM1029.11 1314.25V1324.25H1039.11V1314.25H1029.11ZM1083.34 1267.25H1034.11V1277.25H1083.34V1267.25ZM1088.34 1282.25V1272.25H1078.34V1282.25H1088.34ZM1034.11 1287.25H1083.34V1277.25H1034.11V1287.25ZM1029.11 1272.25V1282.25H1039.11V1272.25H1029.11Z" fill="#19141E"/>
<path id="Fill 13_3" fill-rule="evenodd" clip-rule="evenodd" d="M1214 1364.34H1283.54V1254H1214V1364.34Z" fill="#19141E"/>
</g>
</g>
<g id="Robot / Head / 2">
<g id="Group 31">
<path id="Stroke 3" d="M1391.34 958.492H1330.41" stroke="#19141E" stroke-width="5" stroke-linecap="round"/>
<path id="Stroke 8_2" d="M1205.35 875.396C1193.77 875.396 1184.29 884.874 1184.29 896.46" stroke="white" stroke-width="5" stroke-linecap="round"/>
<path id="Stroke 12" d="M1115.05 958.492H1189.99" stroke="#19141E" stroke-width="5" stroke-linecap="round"/>
<g id="Face color_2">
<path id="Face_2" fill-rule="evenodd" clip-rule="evenodd" d="M1388.54 1071C1399.6 1071.79 1408.33 1081.02 1408.33 1092.28V1101.87H1123.84V1092.28C1123.84 1081.02 1132.57 1071.79 1143.63 1071V1067.2C1143.63 1054.22 1153.12 1043.34 1165.51 1041.16V884.564C1165.51 869.952 1177.46 857.998 1192.07 857.998H1340.1C1354.71 857.998 1366.67 869.952 1366.67 884.564V1041.16C1379.05 1043.34 1388.54 1054.22 1388.54 1067.2V1071ZM1433.7 958.492C1433.7 972.746 1422.14 984.302 1407.89 984.302C1393.63 984.302 1382.08 972.746 1382.08 958.492C1382.08 944.238 1393.63 932.684 1407.89 932.684C1422.14 932.684 1433.7 944.238 1433.7 958.492ZM1115.81 932.684C1101.56 932.684 1090 944.238 1090 958.492C1090 972.746 1101.56 984.302 1115.81 984.302C1130.06 984.302 1141.62 972.746 1141.62 958.492C1141.62 944.238 1130.06 932.684 1115.81 932.684Z" fill="#6CA1FF"/>
</g>
<g id="Overlay_3">
<path id="Shape_4" opacity="0.395926" fill-rule="evenodd" clip-rule="evenodd" d="M1143.63 1071V1064.41C1144.79 1052.46 1155.53 1040.77 1170.07 1040.77H1362.1C1376.64 1040.77 1386.93 1051.57 1388.54 1063.55V1071C1399.6 1071.79 1408.33 1081.02 1408.33 1092.28V1101.87H1123.84V1092.28C1123.84 1081.02 1132.57 1071.79 1143.63 1071ZM1433.7 958.492C1433.7 972.746 1422.14 984.302 1407.89 984.302C1393.63 984.302 1382.08 972.746 1382.08 958.492C1382.08 944.238 1393.63 932.684 1407.89 932.684C1422.14 932.684 1433.7 944.238 1433.7 958.492ZM1090 958.492C1090 944.238 1101.56 932.684 1115.81 932.684C1130.06 932.684 1141.62 944.238 1141.62 958.492C1141.62 972.746 1130.06 984.302 1115.81 984.302C1101.56 984.302 1090 972.746 1090 958.492Z" fill="black"/>
</g>
<path id="Stroke 19" d="M1145.32 1071.63H1387.94" stroke="#19141E" stroke-width="5"/>
<path id="Stroke 21" d="M1206.91 1000.58H1366.67" stroke="#19141E" stroke-width="7"/>
<path id="Fill 23_2" fill-rule="evenodd" clip-rule="evenodd" d="M1248.67 924.642C1237.41 933.91 1235.79 950.552 1245.06 961.812C1254.33 973.072 1270.97 974.686 1282.23 965.418C1293.49 956.15 1295.11 939.508 1285.84 928.248C1276.57 916.988 1259.93 915.374 1248.67 924.642Z" fill="white"/>
<path id="Fill 25_2" fill-rule="evenodd" clip-rule="evenodd" d="M1262.78 935.947C1257.61 940.205 1256.86 947.849 1261.12 953.023C1265.38 958.195 1273.02 958.937 1278.2 954.679C1283.37 950.421 1284.11 942.777 1279.85 937.603C1275.6 932.431 1267.95 931.689 1262.78 935.947Z" fill="#19141E"/>
<path id="Fill 27_2" fill-rule="evenodd" clip-rule="evenodd" d="M1318.13 924.642C1306.87 933.91 1305.25 950.552 1314.52 961.812C1323.79 973.072 1340.43 974.686 1351.69 965.418C1362.95 956.15 1364.57 939.508 1355.3 928.248C1346.03 916.988 1329.39 915.374 1318.13 924.642Z" fill="white"/>
<path id="Fill 29_2" fill-rule="evenodd" clip-rule="evenodd" d="M1332.24 935.947C1327.07 940.205 1326.32 947.849 1330.58 953.023C1334.84 958.195 1342.48 958.937 1347.66 954.679C1352.83 950.421 1353.57 942.777 1349.31 937.603C1345.06 932.431 1337.41 931.689 1332.24 935.947Z" fill="#19141E"/>
</g>
</g>
</g>
</g>
</svg>
